<?xml version="1.0" encoding="UTF-8"?>
<svg version="1.1" xmlns="http://www.w3.org/2000/svg" width="512" height="512">
<path d="M0 0 C2.65625 1.66743469 2.65625 1.66743469 5 4 C5.55175781 6.6603241 5.55175781 6.6603241 5.453125 9.72729492 C5.43080811 10.87916794 5.40849121 12.03104095 5.38549805 13.21781921 C5.31842651 15.08033073 5.31842651 15.08033073 5.25 16.98046875 C5.22599083 18.94051702 5.20206056 20.90056981 5.18266296 22.86066914 C5.12900379 27.68640023 5.02654803 32.50988888 4.86669922 37.33325195 C3.40929371 53.07181828 3.40929371 53.07181828 8.78515625 66.90478516 C11.90739002 69.48116342 15.05300203 71.01471193 19 72 C25.68769159 71.28518768 31.32246593 67.68578486 36 63 C37.61745924 58.45160475 37.4304317 54.23582417 37.21484375 49.453125 C37.20469707 47.48425411 37.19457411 45.51538276 37.18586826 43.54650497 C37.15904297 40.80761675 37.07758848 38.07140291 36.99609375 35.3336792 C36.86091274 30.52644518 36.79480388 25.71824348 36.75526428 20.90936279 C36.72873315 18.35360063 36.67417264 15.79794462 36.58885193 13.24346924 C36.56976273 12.08836853 36.55067352 10.93326782 36.53100586 9.74316406 C36.50147324 8.72804749 36.47194061 7.71293091 36.44151306 6.66705322 C37 4 37 4 39.34474182 1.66644287 C42.60221756 -0.37795238 44.21153035 -0.50512929 48 0 C56.38768949 3.02506834 63.39956926 8.11433671 70 14 C70.71027344 14.62777344 71.42054688 15.25554688 72.15234375 15.90234375 C80.41985011 23.66205701 85.94535879 33.48466676 90 44 C90.48146484 45.24523437 90.48146484 45.24523437 90.97265625 46.515625 C96.68635888 64.69317199 93.92545947 85.9531256 85.4375 102.6875 C81.39502365 110.18053946 75.88577887 115.9345027 70 122 C62.69329645 130.06206853 62.07156406 137.83588828 61.45703125 148.34375 C61.39014099 149.45121582 61.39014099 149.45121582 61.32189941 150.58105469 C61.21302929 152.38727583 61.10629655 154.19362558 61 156 C67.44185295 156.00910371 73.88224784 155.97170023 80.32373047 155.90234375 C82.51377231 155.88420407 84.70392845 155.87661154 86.89404297 155.87988281 C90.04744545 155.88274564 93.19848744 155.84736994 96.3515625 155.8046875 C97.32678864 155.81378143 98.30201477 155.82287537 99.30679321 155.83224487 C104.1834239 155.72857986 107.11423296 155.47766919 110.66552734 151.94970703 C111.43590332 150.97630371 112.2062793 150.00290039 113 149 C111.89140625 148.97421875 110.7828125 148.9484375 109.640625 148.921875 C108.17704453 148.86558344 106.71350438 148.80823633 105.25 148.75 C104.52039063 148.73582031 103.79078125 148.72164062 103.0390625 148.70703125 C99.83417152 148.56135439 97.48682706 148.32505333 94.79003906 146.52441406 C92.14017738 142.78742963 92.42566503 139.47912166 92.46875 135 C92.4649231 134.12730469 92.46109619 133.25460938 92.45715332 132.35546875 C92.4544351 130.51300908 92.46179006 128.67051076 92.47851562 126.828125 C92.49992752 124.00954066 92.47871199 121.19350515 92.453125 118.375 C92.45576829 116.58332771 92.46089331 114.79165701 92.46875 113 C92.46065308 112.15824219 92.45255615 111.31648438 92.44421387 110.44921875 C92.50493668 106.65607986 92.55300916 104.63037169 94.79003906 101.47558594 C98.0823675 99.27730566 101.41421328 99.32454709 105.25 99.25 C105.99507813 99.22035156 106.74015625 99.19070312 107.5078125 99.16015625 C109.33796672 99.0897657 111.16898769 99.04258168 113 99 C112.28972656 98.35933594 111.57945312 97.71867187 110.84765625 97.05859375 C109.92855469 96.19363281 109.00945312 95.32867187 108.0625 94.4375 C107.14597656 93.59058594 106.22945313 92.74367188 105.28515625 91.87109375 C102.5065992 88.38008618 101.91641674 86.44957917 102 82 C104.48154135 77.76795538 107.38933817 74.35438752 110.84375 70.890625 C111.76027344 69.97152344 112.67679687 69.05242187 113.62109375 68.10546875 C114.09401855 67.6367334 114.56694336 67.16799805 115.05419922 66.68505859 C116.50337328 65.24665178 117.94149173 63.79780426 119.37890625 62.34765625 C120.29542969 61.43371094 121.21195312 60.51976562 122.15625 59.578125 C123.40631836 58.33144043 123.40631836 58.33144043 124.68164062 57.05957031 C128.06329565 54.05539573 129.85482678 52.98032348 134.41015625 53.05859375 C138.74453111 54.195247 140.42037056 55.79738732 143.4375 59.0625 C144.30246094 59.98160156 145.16742188 60.90070313 146.05859375 61.84765625 C146.69925781 62.55792969 147.33992188 63.26820312 148 64 C148.02578125 62.89140625 148.0515625 61.7828125 148.078125 60.640625 C148.13441656 59.17704453 148.19176367 57.71350438 148.25 56.25 C148.26417969 55.52039063 148.27835937 54.79078125 148.29296875 54.0390625 C148.43864561 50.83417152 148.67494667 48.48682706 150.47558594 45.79003906 C154.21257037 43.14017738 157.52087834 43.42566503 162 43.46875 C162.87269531 43.4649231 163.74539063 43.46109619 164.64453125 43.45715332 C166.48699092 43.4544351 168.32948924 43.46179006 170.171875 43.47851562 C172.99045934 43.49992752 175.80649485 43.47871199 178.625 43.453125 C180.41667229 43.45576829 182.20834299 43.46089331 184 43.46875 C184.84175781 43.46065308 185.68351562 43.45255615 186.55078125 43.44421387 C190.34392014 43.50493668 192.36962831 43.55300916 195.52441406 45.79003906 C197.72269434 49.0823675 197.67545291 52.41421328 197.75 56.25 C197.79447266 57.36761719 197.79447266 57.36761719 197.83984375 58.5078125 C197.9102343 60.33796672 197.95741832 62.16898769 198 64 C198.64066406 63.28972656 199.28132813 62.57945313 199.94140625 61.84765625 C200.80636719 60.92855469 201.67132813 60.00945312 202.5625 59.0625 C203.83287109 57.68771484 203.83287109 57.68771484 205.12890625 56.28515625 C208.61991382 53.5065992 210.55042083 52.91641674 215 53 C219.23204462 55.48154135 222.64561248 58.38933817 226.109375 61.84375 C227.02847656 62.76027344 227.94757813 63.67679688 228.89453125 64.62109375 C229.59763428 65.33048096 229.59763428 65.33048096 230.31494141 66.05419922 C231.75334822 67.50337328 233.20219574 68.94149173 234.65234375 70.37890625 C236.02326172 71.75369141 236.02326172 71.75369141 237.421875 73.15625 C238.66855957 74.40631836 238.66855957 74.40631836 239.94042969 75.68164062 C242.94460427 79.06329565 244.01967652 80.85482678 243.94140625 85.41015625 C242.804753 89.74453111 241.20261268 91.42037056 237.9375 94.4375 C237.01839844 95.30246094 236.09929687 96.16742188 235.15234375 97.05859375 C234.44207031 97.69925781 233.73179687 98.33992188 233 99 C234.10859375 99.02578125 235.2171875 99.0515625 236.359375 99.078125 C237.82295547 99.13441656 239.28649562 99.19176367 240.75 99.25 C241.47960937 99.26417969 242.20921875 99.27835937 242.9609375 99.29296875 C246.16582848 99.43864561 248.51317294 99.67494667 251.20996094 101.47558594 C253.85982262 105.21257037 253.57433497 108.52087834 253.53125 113 C253.5350769 113.87269531 253.53890381 114.74539062 253.54284668 115.64453125 C253.5455649 117.48699092 253.53820994 119.32948924 253.52148438 121.171875 C253.50007248 123.99045934 253.52128801 126.80649485 253.546875 129.625 C253.54423171 131.41667229 253.53910669 133.20834299 253.53125 135 C253.53934692 135.84175781 253.54744385 136.68351563 253.55578613 137.55078125 C253.49506332 141.34392014 253.44699084 143.36962831 251.20996094 146.52441406 C247.9176325 148.72269434 244.58578672 148.67545291 240.75 148.75 C240.00492187 148.77964844 239.25984375 148.80929688 238.4921875 148.83984375 C236.66203328 148.9102343 234.83101231 148.95741832 233 149 C236.45752967 153.45442613 236.45752967 153.45442613 241.484375 155.48046875 C243.19842992 155.57428537 244.916267 155.61760498 246.6328125 155.6015625 C249.90433503 156.15221481 250.82822064 157.51392049 253 160 C254.20277254 162.02620747 255.32623425 164.10044175 256.39160156 166.20214844 C256.70429993 166.81411072 257.01699829 167.426073 257.33917236 168.05657959 C258.3647996 170.07000664 259.37837884 172.08919112 260.390625 174.109375 C261.1021229 175.51950645 261.81385758 176.92951845 262.52581787 178.3394165 C264.01413208 181.29213307 265.4958255 184.24806671 266.97363281 187.20605469 C268.86274773 190.98469087 270.77363086 194.75184116 272.69040298 198.5165062 C274.16670128 201.42449968 275.62829314 204.33970224 277.08592987 207.25708771 C277.78406226 208.64865083 278.48735106 210.03764004 279.19599152 211.42388153 C280.18812733 213.36869694 281.15921965 215.32274517 282.12597656 217.28027344 C282.68238831 218.38739685 283.23880005 219.49452026 283.81207275 220.63519287 C285.31351493 224.88803188 285.50398209 227.50712028 285 232 C283.68 233.32 282.36 234.64 281 236 C271.76 236 262.52 236 253 236 C253 264.71 253 293.42 253 323 C255.64 323.33 258.28 323.66 261 324 C269.74577596 326.84746194 276.0891657 332.51546192 280.3828125 340.60546875 C284.37140676 350.27013945 284.29600394 359.81787894 280.31640625 369.46875 C274.1779599 381.27205337 261.60379323 387.42758394 250.375 393.5625 C241.88076024 398.26107918 233.43618799 403.02710702 225.0625 407.9375 C216.76625069 412.79945629 208.456567 417.63626856 200.125 422.4375 C199.04484619 423.06003662 197.96469238 423.68257324 196.85180664 424.32397461 C194.66203666 425.58576826 192.47217645 426.84740534 190.28222656 428.10888672 C185.93449891 430.61390743 181.58821172 433.12141991 177.2421875 435.62939453 C175.08884498 436.87178236 172.93520131 438.1136484 170.78125 439.35498047 C165.77168982 442.24260376 160.76459543 445.13421845 155.76715088 448.04275513 C154.01729819 449.06088711 152.26659057 450.07753333 150.515625 451.09375 C148.33423929 452.36036106 146.15441975 453.6296753 143.9765625 454.90234375 C129.34771487 463.38556725 118.37232111 468.30267943 101.35473633 468.29052734 C99.98550046 468.29652103 98.61626795 468.30332849 97.24703979 468.31088257 C93.54632717 468.3284674 89.8457072 468.33323484 86.14495683 468.33451414 C83.8264682 468.33594092 81.50800273 468.34022052 79.18951988 468.34550858 C71.08263036 468.36398617 62.97580637 468.37218231 54.86889648 468.37060547 C47.34237485 468.36940568 39.81614071 468.39048177 32.28969175 468.4220928 C25.80359242 468.44835201 19.31758642 468.4589687 12.83143443 468.45769465 C8.96838451 468.45718771 5.10559018 468.46272065 1.24259377 468.48405075 C-2.39621082 468.50359601 -6.03452031 468.50344832 -9.67334366 468.48901749 C-11.6233743 468.48597165 -13.57340587 468.50249237 -15.52336121 468.51989746 C-26.41965326 468.44325761 -36.19155868 465.85025805 -45.8125 460.75 C-46.80894531 460.22921875 -47.80539063 459.7084375 -48.83203125 459.171875 C-49.54746094 458.78515625 -50.26289063 458.3984375 -51 458 C-50.95359375 458.96421875 -50.9071875 459.9284375 -50.859375 460.921875 C-50.82328125 462.18515625 -50.7871875 463.4484375 -50.75 464.75 C-50.70359375 466.00296875 -50.6571875 467.2559375 -50.609375 468.546875 C-51 472 -51 472 -52.58691406 474.18347168 C-55.8448005 476.63595085 -57.94311987 476.50731642 -62 476.51757812 C-62.69641602 476.5245874 -63.39283203 476.53159668 -64.11035156 476.53881836 C-66.40730932 476.55639196 -68.70303021 476.54477919 -71 476.53125 C-72.59896073 476.53394513 -74.19791987 476.53782773 -75.796875 476.54284668 C-79.14599226 476.54874082 -82.49468243 476.54018192 -85.84375 476.52148438 C-90.13478591 476.49869435 -94.42482111 476.51181796 -98.71582031 476.53577423 C-102.01700366 476.5502348 -105.31795011 476.54562515 -108.61914062 476.53526306 C-110.20117308 476.53259646 -111.78322711 476.53586322 -113.36523438 476.54518127 C-115.57740163 476.55535179 -117.787953 476.5398419 -120 476.51757812 C-121.258125 476.51439575 -122.51625 476.51121338 -123.8125 476.50793457 C-127 476 -127 476 -129.421875 474.35827637 C-131.46889714 471.299302 -131.40859243 469.39762579 -131.25 465.75 C-131.21390625 464.67234375 -131.1778125 463.5946875 -131.140625 462.484375 C-131.09421875 461.66453125 -131.0478125 460.8446875 -131 460 C-131.74280212 460.00888245 -132.48560425 460.01776489 -133.25091553 460.0269165 C-140.25449905 460.10709744 -147.25792335 460.16798186 -154.26183701 460.20724869 C-157.86258286 460.22811513 -161.46294916 460.25641421 -165.06347656 460.30175781 C-168.53887913 460.34525125 -172.01391688 460.36914421 -175.48957062 460.37950897 C-177.45945784 460.39048615 -179.42919847 460.421707 -181.39886475 460.45318604 C-183.20027924 460.45363922 -183.20027924 460.45363922 -185.03808594 460.45410156 C-186.6236026 460.46742523 -186.6236026 460.46742523 -188.2411499 460.48101807 C-191.76635679 459.86638221 -192.76283009 458.7470094 -195 456 C-195.50336456 453.64489746 -195.50336456 453.64489746 -195.50793457 450.99023438 C-195.52485352 449.47610962 -195.52485352 449.47610962 -195.54211426 447.93139648 C-195.52996887 446.27926147 -195.52996887 446.27926147 -195.51757812 444.59375 C-195.5245874 443.4291626 -195.53159668 442.2645752 -195.53881836 441.06469727 C-195.55644432 437.20955667 -195.54475841 433.35514826 -195.53125 429.5 C-195.53394357 426.82486047 -195.53781853 424.14974331 -195.54284668 421.47460938 C-195.55012197 415.8658045 -195.54053871 410.25721037 -195.52148438 404.6484375 C-195.49971557 398.16582093 -195.50676705 391.68370758 -195.52879 385.20110321 C-195.54694759 379.63323411 -195.54950066 374.06551641 -195.53903532 368.49762726 C-195.53280222 365.1730433 -195.53353198 361.84874748 -195.54518127 358.52416992 C-195.55531748 354.81784843 -195.53988485 351.11249893 -195.51757812 347.40625 C-195.52567505 346.30482666 -195.53377197 345.20340332 -195.54211426 344.06860352 C-195.53083496 343.05918701 -195.51955566 342.04977051 -195.50793457 341.00976562 C-195.50642647 340.13372681 -195.50491837 339.25768799 -195.50336456 338.35510254 C-194.82967113 335.20307868 -193.48194675 333.99066754 -191 332 C-188.2411499 331.51898193 -188.2411499 331.51898193 -185.03808594 331.54589844 C-183.83714294 331.54620056 -182.63619995 331.54650269 -181.39886475 331.54681396 C-180.10708313 331.56745911 -178.81530151 331.58810425 -177.484375 331.609375 C-176.14488571 331.61683929 -174.80538548 331.62253134 -173.46588135 331.62652588 C-169.94748564 331.64176787 -166.42975485 331.68103582 -162.91162109 331.7253418 C-159.31877639 331.76632636 -155.7258238 331.7845436 -152.1328125 331.8046875 C-145.08827034 331.84753255 -138.04417868 331.91576554 -131 332 C-131.04640625 331.18015625 -131.0928125 330.3603125 -131.140625 329.515625 C-131.17671875 328.43796875 -131.2128125 327.3603125 -131.25 326.25 C-131.29640625 325.18265625 -131.3428125 324.1153125 -131.390625 323.015625 C-131 320 -131 320 -129.421875 317.64172363 C-126.14919167 315.42326002 -123.94139813 315.49239147 -120 315.48242188 C-119.30358398 315.4754126 -118.60716797 315.46840332 -117.88964844 315.46118164 C-115.59269068 315.44360804 -113.29696979 315.45522081 -111 315.46875 C-109.40103927 315.46605487 -107.80208013 315.46217227 -106.203125 315.45715332 C-102.85400774 315.45125918 -99.50531757 315.45981808 -96.15625 315.47851562 C-91.86521409 315.50130565 -87.57517889 315.48818204 -83.28417969 315.46422577 C-79.98299634 315.4497652 -76.68204989 315.45437485 -73.38085938 315.46473694 C-71.79882692 315.46740354 -70.21677289 315.46413678 -68.63476562 315.45481873 C-66.42259837 315.44464821 -64.212047 315.4601581 -62 315.48242188 C-60.1128125 315.48719543 -60.1128125 315.48719543 -58.1875 315.49206543 C-54.44586617 316.08830235 -53.26341734 317.02138968 -51 320 C-50.54589844 322.01464844 -50.54589844 322.01464844 -50.609375 324.109375 C-50.62226563 324.86347656 -50.63515625 325.61757813 -50.6484375 326.39453125 C-50.69871094 327.56048828 -50.69871094 327.56048828 -50.75 328.75 C-50.76804688 329.54277344 -50.78609375 330.33554687 -50.8046875 331.15234375 C-50.85166918 333.10208348 -50.92340956 335.05119878 -51 337 C-46.05 335.68 -41.1 334.36 -36 333 C-35.67 300.99 -35.34 268.98 -35 236 C-44.24 236 -53.48 236 -63 236 C-67 232 -67 232 -67.43635559 228.18344116 C-67.21094277 223.99779851 -65.90512989 220.8199468 -64.01831055 217.06494141 C-63.7012616 216.42325012 -63.38421265 215.78155884 -63.05755615 215.12042236 C-62.01603405 213.02267898 -60.95209521 210.93727828 -59.88671875 208.8515625 C-59.15286906 207.38863688 -58.420206 205.92511546 -57.68867493 204.46102905 C-56.15752768 201.40497035 -54.61583135 198.35456404 -53.06567383 195.30810547 C-51.07863169 191.40219501 -49.11299356 187.48599478 -47.15439129 183.56575966 C-45.64495686 180.54797764 -44.1272245 177.53443475 -42.60663795 174.52225876 C-41.87869939 173.07910797 -41.1526932 171.6349808 -40.42865562 170.18986893 C-39.41704304 168.17530776 -38.39507543 166.16636338 -37.36987305 164.15869141 C-36.50050362 162.44282333 -36.50050362 162.44282333 -35.61357117 160.69229126 C-34 158 -34 158 -31 156 C-28.08203125 155.8046875 -28.08203125 155.8046875 -24.8125 155.875 C-23.72582031 155.89304688 -22.63914063 155.91109375 -21.51953125 155.9296875 C-20.68808594 155.95289063 -19.85664063 155.97609375 -19 156 C-19.22208447 152.33109225 -19.48274323 148.66587204 -19.75 145 C-19.811875 143.97003906 -19.87375 142.94007813 -19.9375 141.87890625 C-20.68007441 132.16355774 -23.0295636 126.31116068 -30.3125 119.6875 C-43.29522104 107.34851454 -50.7617403 90.00156157 -52 72.17578125 C-52 51.1232703 -45.79033681 31.91649336 -30.8203125 16.72265625 C-23.01343219 9.18609728 -11.72175338 -1.61251634 0 0 Z " fill="#231F20" transform="translate(211,20)"/>
<path d="M0 0 C4.30107595 2.27226654 7.63260062 4.72047035 10 9 C10.83741029 14.51152689 10.95720153 20.60404023 7.65234375 25.35546875 C4.08772446 28.90323405 -0.32344621 31.23214686 -4.67138672 33.68310547 C-7.36698261 35.20753871 -10.04484683 36.76094293 -12.72265625 38.31640625 C-17.73857466 41.22602626 -22.76292428 44.12060823 -27.79168701 47.00796509 C-33.86636217 50.49624442 -39.93328436 53.99790277 -46 57.5 C-48.16663141 58.75006112 -50.33329814 60.000061 -52.5 61.25 C-53.5725 61.86875 -54.645 62.4875 -55.75 63.125 C-59 65 -62.25 66.875 -65.5 68.75 C-66.57290283 69.3689917 -67.64580566 69.9879834 -68.7512207 70.62573242 C-70.91378583 71.8733474 -73.07638339 73.12090616 -75.23901367 74.3684082 C-81.82957573 78.17025461 -88.41888177 81.97426681 -95.00732422 85.77978516 C-98.26273453 87.65877586 -101.5199152 89.53466708 -104.77734375 91.41015625 C-108.81914202 93.73793614 -112.85232387 96.07960219 -116.87890625 98.43359375 C-118.71089124 99.49747549 -120.54292011 100.56128169 -122.375 101.625 C-123.57636597 102.33402466 -123.57636597 102.33402466 -124.80200195 103.05737305 C-135.67651434 109.34492537 -144.83713168 112.75592833 -157.50439453 112.61523438 C-159.4433963 112.62355789 -159.4433963 112.62355789 -161.42156982 112.63204956 C-164.92997435 112.64615859 -168.43758198 112.62937675 -171.94590998 112.60576439 C-175.63807859 112.58548038 -179.33021973 112.59154383 -183.02243042 112.59387207 C-189.21739657 112.5938187 -195.41205567 112.57417994 -201.60693359 112.54199219 C-208.74618297 112.5050755 -215.88503124 112.49632329 -223.02436364 112.5032897 C-229.92499722 112.50961632 -236.82549483 112.49880272 -243.72610092 112.47932434 C-246.64849679 112.47119773 -249.57082271 112.46843196 -252.49322891 112.47001648 C-256.58048618 112.47106665 -260.66722535 112.44677376 -264.75439453 112.41992188 C-265.9525882 112.42285248 -267.15078186 112.42578308 -268.38528442 112.42880249 C-269.50918579 112.4174527 -270.63308716 112.40610291 -271.79104614 112.39440918 C-273.23608363 112.38881611 -273.23608363 112.38881611 -274.7103138 112.38311005 C-287.11376699 110.93862956 -295.81687611 104.88585468 -307 99 C-307 70.95 -307 42.9 -307 14 C-296.32190787 11.0338633 -285.7922335 8.14541221 -275 5.75 C-272.74949086 5.24706455 -270.49946203 4.74197332 -268.25 4.234375 C-266.80367187 3.91291504 -266.80367187 3.91291504 -265.328125 3.58496094 C-262.99640022 3.08810614 -262.99640022 3.08810614 -261 2 C-244.1176616 -0.10216537 -228.03652866 5.40988071 -212 10 C-210.9677832 10.29277832 -209.93556641 10.58555664 -208.87207031 10.88720703 C-205.34439531 11.88859978 -201.81821082 12.89440769 -198.29760742 13.92041016 C-191.74388498 15.8244226 -185.14604905 17.48784389 -178.5168457 19.10620117 C-171.58064838 20.8155538 -164.72772636 22.76611162 -157.87084961 24.76733398 C-151.80169654 26.52468433 -145.70377871 28.0796173 -139.5625 29.5625 C-115.22846586 35.58551742 -115.22846586 35.58551742 -110.86328125 42.76171875 C-108.93479978 47.76180872 -108.92957725 52.33071795 -110.92578125 57.30859375 C-113.4554718 61.79941247 -115.93671195 64.4997665 -121 66 C-130.21218099 67.44247674 -138.68778753 64.35080708 -147.39599609 61.75292969 C-152.0900714 60.39567034 -156.82883812 59.21027354 -161.5625 58 C-168.22609833 56.28236949 -174.8517769 54.49552725 -181.4375 52.5 C-189.37245011 50.09706677 -197.39743503 48.09920815 -205.45288086 46.14257812 C-210.97578452 44.79338724 -216.41702937 43.31945533 -221.83447266 41.59179688 C-225.72923116 40.52743446 -229.28562352 40.11516053 -232.9375 42 C-234.61070976 45.14957132 -234.71509578 48.5226715 -234 52 C-231.45761167 55.53334196 -227.80520413 56.09685515 -223.7890625 57.05078125 C-222.71517776 57.3197245 -222.71517776 57.3197245 -221.61959839 57.59410095 C-220.08597725 57.97719073 -218.55118891 58.35563226 -217.01538086 58.7298584 C-213.00767287 59.7067142 -209.00834227 60.71688545 -205.0078125 61.72265625 C-204.2203363 61.91963104 -203.43286011 62.11660583 -202.621521 62.31954956 C-196.54555812 63.84472461 -190.51251961 65.49035276 -184.5 67.25 C-170.5312069 71.3203768 -156.45416155 74.93877873 -142.32006836 78.38891602 C-141.52221924 78.58541748 -140.72437012 78.78191895 -139.90234375 78.984375 C-138.84261353 79.24299316 -138.84261353 79.24299316 -137.76147461 79.50683594 C-136 80 -136 80 -134 81 C-123.41581528 81.99779307 -114.95271343 81.38307965 -106 75 C-99.87982548 69.9017058 -96.93137397 63.64734778 -95 56 C-94.90855401 54.56405079 -94.8427561 53.12603991 -94.8125 51.6875 C-94 48 -94 48 -92.32324219 46.53833008 C-91.59266602 46.07837646 -90.86208984 45.61842285 -90.109375 45.14453125 C-89.29057861 44.62737549 -88.47178223 44.11021973 -87.62817383 43.57739258 C-83.27724408 40.96602638 -78.87382798 38.46304499 -74.4375 36 C-66.31053553 31.44742836 -58.2258782 26.83226042 -50.1875 22.125 C-41.94480311 17.30355508 -33.70017777 12.48573839 -25.43618774 7.7008667 C-23.71892584 6.70571131 -22.00336705 5.70761884 -20.2878418 4.70947266 C-18.72803589 3.80720947 -18.72803589 3.80720947 -17.13671875 2.88671875 C-16.21592529 2.35264404 -15.29513184 1.81856934 -14.34643555 1.26831055 C-9.35028352 -1.43224192 -5.41689326 -1.19653978 0 0 Z " fill="#FEBBAA" transform="translate(467,360)"/>
<path d="M0 0 C2.64695424 3.52927232 4.57253694 6.94735796 6.46875 10.8828125 C7.12869095 12.22797023 7.78885382 13.57301911 8.44921875 14.91796875 C9.47918319 17.02764722 10.50654543 19.13851606 11.52978516 21.25146484 C12.5232626 23.29876006 13.52658812 25.34098793 14.53125 27.3828125 C14.83446167 28.01615509 15.13767334 28.64949768 15.45007324 29.30203247 C17.03946994 32.51781037 17.94121865 33.96081244 21 36 C22.9570446 36.30899526 22.9570446 36.30899526 25.1191864 36.2784729 C25.95631165 36.28963638 26.79343689 36.30079987 27.65592957 36.31230164 C28.57086685 36.31446182 29.48580414 36.31662201 30.4284668 36.31884766 C31.87752914 36.33391609 31.87752914 36.33391609 33.35586548 36.34928894 C36.55364377 36.3802159 39.75133798 36.39718257 42.94921875 36.4140625 C45.16454293 36.43276649 47.37985993 36.45233931 49.59516907 36.4727478 C55.42961399 36.52415623 61.26408203 36.56373535 67.09863281 36.60089111 C73.05083984 36.64087618 79.00294998 36.69199356 84.95507812 36.7421875 C96.63665077 36.83904993 108.31827801 36.92342168 120 37 C120.30163455 48.59564665 120.53240151 60.19035608 120.67355824 71.78913116 C120.74132126 77.17561182 120.83315948 82.55940334 120.98071289 87.94433594 C121.12231156 93.14469125 121.19975856 98.34246688 121.23340416 103.54460144 C121.25736739 105.52565645 121.30417085 107.5065749 121.37449074 109.48652649 C121.88915318 124.58243982 121.88915318 124.58243982 118.75935555 128.58765984 C115.26405318 131.63276469 111.27689071 133.26410049 107 135 C104.96879901 136.1490481 102.95145265 137.32339214 100.95703125 138.53515625 C98.90996214 139.71286545 96.86175048 140.88859055 94.8125 142.0625 C92.54293099 143.36712182 90.27340092 144.67181137 88.00390625 145.9765625 C86.84001738 146.6448757 85.6761176 147.3131699 84.51220703 147.98144531 C79.87255675 150.64654638 75.23949287 153.32301931 70.60668945 156 C68.39177544 157.27846081 66.17549323 158.55455454 63.95776367 159.828125 C59.41124183 162.43994924 54.87437089 165.05767791 50.3984375 167.7890625 C49.41762207 168.37892944 49.41762207 168.37892944 48.41699219 168.98071289 C46.78400755 169.96651057 45.1609602 170.96872211 43.5390625 171.97265625 C41 173 41 173 38.859375 172.390625 C36.93044642 170.94798094 35.31045335 169.40727254 33.625 167.6875 C24.74976718 159.78017612 10.95304356 157.92081162 0 155 C0 103.85 0 52.7 0 0 Z " fill="#8A5D3B" transform="translate(328,219)"/>
<path d="M0 0 C0.33 0 0.66 0 1 0 C1 49.5 1 99 1 150 C-7.98616601 148.87672925 -7.98616601 148.87672925 -11.53125 147.80078125 C-12.32942139 147.56415771 -13.12759277 147.32753418 -13.94995117 147.08374023 C-15.21222534 146.70197632 -15.21222534 146.70197632 -16.5 146.3125 C-24.35453851 143.99945108 -32.23558007 141.88927715 -40.1875 139.9375 C-47.32287482 138.1838234 -54.42791289 136.36909669 -61.5 134.375 C-62.22687012 134.17358398 -62.95374023 133.97216797 -63.70263672 133.76464844 C-67.12397435 132.81638929 -70.5310613 131.84039827 -73.92578125 130.80078125 C-81.56557852 128.55507992 -88.77586354 127.62290474 -96.75 127.5625 C-97.58893799 127.5524292 -98.42787598 127.5423584 -99.29223633 127.53198242 C-106.50900582 127.63116992 -111.61027195 129.15256799 -119 131 C-119 99.98 -119 68.96 -119 37 C-111.89984375 36.97421875 -104.7996875 36.9484375 -97.484375 36.921875 C-92.99084908 36.89671357 -88.49739093 36.87038609 -84.00390625 36.83984375 C-76.86897507 36.79145895 -69.73420072 36.74743324 -62.59912109 36.72900391 C-56.84772599 36.71387877 -51.09674065 36.67950674 -45.34552765 36.63169098 C-43.14949349 36.61683441 -40.95340084 36.60895655 -38.75731659 36.60811615 C-35.68509546 36.60575764 -32.61401705 36.57876742 -29.54199219 36.54589844 C-28.63065018 36.5509288 -27.71930817 36.55595917 -26.78034973 36.56114197 C-21.80278014 36.51389469 -21.80278014 36.51389469 -17.52380371 34.17785645 C-15.39745918 31.13883436 -13.7229994 27.93777755 -12.109375 24.609375 C-11.75989807 23.90476135 -11.41042114 23.20014771 -11.050354 22.47418213 C-9.94262793 20.2364501 -8.84619555 17.99339932 -7.75 15.75 C-6.99813627 14.22619694 -6.24553983 12.70275516 -5.4921875 11.1796875 C-3.65294913 7.45725437 -1.82381511 3.73001242 0 0 Z " fill="#A87B4F" transform="translate(311,219)"/>
<path d="M0 0 C0.01213028 0.88869781 0.01213028 0.88869781 0.02450562 1.79534912 C0.1105396 7.9598137 0.21004284 14.1239563 0.31738281 20.28808594 C0.35567417 22.5888122 0.39052674 24.88959835 0.421875 27.19042969 C0.4675217 30.49696262 0.52551747 33.80308312 0.5859375 37.109375 C0.59748871 38.13867126 0.60903992 39.16796753 0.62094116 40.22845459 C0.64081085 41.18914856 0.66068054 42.14984253 0.68115234 43.13964844 C0.69447601 43.98348083 0.70779968 44.82731323 0.7215271 45.69671631 C1.1982482 49.63973534 2.42413934 51.52980236 5.48681641 54.03051758 C8.25472787 55.90913063 11.0232094 57.78428509 13.81982422 59.61987305 C15.61322964 60.80472367 17.38213515 62.02109127 19.15234375 63.24023438 C25.57539635 67.86669971 25.57539635 67.86669971 33.0625 69.5 C39.06512661 67.86904088 44.32778386 63.66697409 49.375 60.1875 C50.46683594 59.46240234 51.55867188 58.73730469 52.68359375 57.99023438 C59.01934386 54.02914988 59.01934386 54.02914988 63 48 C63.32352812 45.66019459 63.32352812 45.66019459 63.31884766 43.13964844 C63.33871735 42.17895447 63.35858704 41.2182605 63.37905884 40.22845459 C63.39061005 39.19915833 63.40216125 38.16986206 63.4140625 37.109375 C63.43342865 36.04962463 63.4527948 34.98987427 63.4727478 33.89801025 C63.53249554 30.51542187 63.5789102 27.13279937 63.625 23.75 C63.66318416 21.45571438 63.70223615 19.16144303 63.7421875 16.8671875 C63.83819315 11.24491838 63.92325483 5.62256323 64 0 C65.28671421 0.94941391 66.57129968 1.90171328 67.85498047 2.85522461 C68.92835159 3.65022621 68.92835159 3.65022621 70.02340698 4.46128845 C79.26556476 11.65599914 85.75080793 24.13223291 87.75 35.5859375 C89.37714368 51.29804363 86.85901829 67.84973361 76.78417969 80.53027344 C74.0186195 83.84690466 71.16504056 87.05696768 68 90 C67.34 90 66.68 90 66 90 C65.73316406 90.53753906 65.46632813 91.07507813 65.19140625 91.62890625 C64.31553107 93.37204144 63.42540673 95.1080353 62.52734375 96.83984375 C62.00269531 97.86207031 61.47804688 98.88429688 60.9375 99.9375 C60.41027344 100.95714844 59.88304687 101.97679687 59.33984375 103.02734375 C57.32904319 107.48862428 56.87358717 111.66112812 56.68359375 116.51953125 C56.64169922 117.54111328 56.59980469 118.56269531 56.55664062 119.61523438 C56.51732422 120.67033203 56.47800781 121.72542969 56.4375 122.8125 C56.37272461 124.42415039 56.37272461 124.42415039 56.30664062 126.06835938 C56.20089098 128.71210051 56.09997297 131.35603412 56 134 C50.72 134 45.44 134 40 134 C39.97421875 132.09734375 39.9484375 130.1946875 39.921875 128.234375 C39.86560098 125.73956017 39.8082535 123.24476939 39.75 120.75 C39.73582031 119.49574219 39.72164062 118.24148437 39.70703125 116.94921875 C39.67480469 115.74394531 39.64257812 114.53867188 39.609375 113.296875 C39.58842773 112.18666992 39.56748047 111.07646484 39.54589844 109.93261719 C38.88328246 106.37298252 37.85073387 105.17204939 35 103 C32 102.33333333 32 102.33333333 29 103 C26.14926613 105.17204939 25.11671754 106.37298252 24.45410156 109.93261719 C24.4331543 111.04282227 24.41220703 112.15302734 24.390625 113.296875 C24.35839844 114.50214844 24.32617188 115.70742187 24.29296875 116.94921875 C24.27878906 118.20347656 24.26460937 119.45773438 24.25 120.75 C24.20552734 122.65458984 24.20552734 122.65458984 24.16015625 124.59765625 C24.08946966 127.73142836 24.04246994 130.8657185 24 134 C18.72 134 13.44 134 8 134 C7.94392578 131.68355469 7.94392578 131.68355469 7.88671875 129.3203125 C7.82101018 127.25518602 7.75456458 125.19008289 7.6875 123.125 C7.66494141 122.11179687 7.64238281 121.09859375 7.61914062 120.0546875 C7.20068399 108.18573563 4.14654771 96.78289594 -4.765625 88.32421875 C-5.92093183 87.4004937 -7.07979747 86.48120199 -8.2421875 85.56640625 C-18.39836861 76.51612041 -23.34489868 61.92010571 -24.21875 48.6875 C-24.65588874 32.0762278 -19.35911127 17.95566802 -7.86328125 5.8125 C-1.88793103 0 -1.88793103 0 0 0 Z " fill="#FD9711" transform="translate(200,42)"/>
<path d="M0 0 C15.84 0 31.68 0 48 0 C48 42.24 48 84.48 48 128 C32.16 128 16.32 128 0 128 C0 85.76 0 43.52 0 0 Z " fill="#006DF0" transform="translate(96,352)"/>
<path d="M0 0 C38.94 0 77.88 0 118 0 C123.96861074 11.34036041 129.91125354 22.65966769 135.625 34.125 C136.25377657 35.37897129 136.8826829 36.63287751 137.51171875 37.88671875 C138.09824219 39.06105469 138.68476563 40.23539063 139.2890625 41.4453125 C139.81193848 42.49219238 140.33481445 43.53907227 140.87353516 44.61767578 C142 47 142 47 142 48 C103.06 48 64.12 48 24 48 C18.03138926 36.65963959 12.08874646 25.34033231 6.375 13.875 C5.74622343 12.62102871 5.1173171 11.36712249 4.48828125 10.11328125 C3.60849609 8.35177734 3.60849609 8.35177734 2.7109375 6.5546875 C2.18806152 5.50780762 1.66518555 4.46092773 1.12646484 3.38232422 C0 1 0 1 0 0 Z " fill="#744B28" transform="translate(333,192)"/>
<path d="M0 0 C0.86925078 0.00092179 1.73850157 0.00184359 2.63409328 0.00279331 C3.62833813 0.00141865 4.62258297 0.00004398 5.64695644 -0.00137234 C6.74674831 0.00222294 7.84654018 0.00581821 8.97965908 0.00952244 C10.70626011 0.0093034 10.70626011 0.0093034 12.46774197 0.00907993 C16.29326635 0.00977965 20.11874275 0.0175748 23.94425869 0.02539158 C26.58841837 0.02725555 29.2325784 0.02867955 31.87673855 0.0296793 C38.13825661 0.03279234 44.3997573 0.04100535 50.6612677 0.05102879 C57.78811781 0.06219078 64.91496874 0.06770059 72.04182541 0.07272422 C86.70592674 0.08318799 101.37001435 0.10078689 116.03410244 0.12304783 C114.61648557 3.12466187 113.19747841 6.12561672 111.77824306 9.1264658 C111.38171535 9.96610371 110.98518764 10.80574162 110.57664394 11.6708231 C106.99270868 19.24575052 103.29156065 26.75785153 99.53410244 34.24804783 C98.90897245 35.50188928 98.2839725 36.75579557 97.65910244 38.00976658 C96.77738369 39.77127048 96.77738369 39.77127048 95.87785244 41.56836033 C95.35384853 42.61524021 94.82984463 43.66212009 94.28996181 44.74072361 C93.03410244 47.12304783 93.03410244 47.12304783 92.03410244 48.12304783 C90.50324405 48.21886605 88.96796488 48.24492891 87.4341116 48.24330235 C85.94274433 48.24536434 85.94274433 48.24536434 84.42124844 48.24746799 C83.32145657 48.24387272 82.2216647 48.24027744 81.0885458 48.23657322 C79.93747845 48.23671925 78.78641109 48.23686527 77.60046291 48.23701572 C73.77493853 48.236316 69.94946213 48.22852085 66.12394619 48.22070408 C63.47978651 48.21884011 60.83562648 48.21741611 58.19146633 48.21641636 C51.92994827 48.21330332 45.66844758 48.20509031 39.40693718 48.19506687 C32.28008707 48.18390487 25.15323614 48.17839506 18.02637947 48.17337143 C3.36227814 48.16290767 -11.30180947 48.14530876 -25.96589756 48.12304783 C-24.54828069 45.12143379 -23.12927353 42.12047894 -21.71003819 39.11962986 C-21.31351048 38.27999195 -20.91698277 37.44035404 -20.50843906 36.57527256 C-16.9245038 29.00034514 -13.22335577 21.48824413 -9.46589756 13.99804783 C-8.84076757 12.74420638 -8.21576762 11.49030009 -7.59089756 10.23632908 C-7.00308506 9.06199314 -6.41527256 7.8876572 -5.80964756 6.67773533 C-5.28564365 5.63085545 -4.76163975 4.58397556 -4.22175694 3.50537205 C-2.45487433 0.15365346 -2.45487433 0.15365346 0 0 Z " fill="#8A5D3B" transform="translate(190.96589756011963,191.87695217132568)"/>
<path d="M0 0 C15.84 0 31.68 0 48 0 C48 31.68 48 63.36 48 96 C32.16 96 16.32 96 0 96 C0 64.32 0 32.64 0 0 Z " fill="#005ECE" transform="translate(32,368)"/>
<path d="M0 0 C5.28 0 10.56 0 16 0 C16.06058594 1.46953125 16.12117188 2.9390625 16.18359375 4.453125 C16.26801467 6.38542605 16.3526619 8.31771722 16.4375 10.25 C16.47681641 11.21808594 16.51613281 12.18617187 16.55664062 13.18359375 C16.59853516 14.11816406 16.64042969 15.05273438 16.68359375 16.015625 C16.72025146 16.87446289 16.75690918 17.73330078 16.79467773 18.61816406 C16.99066692 20.89173184 17.21602313 22.85512959 18 25 C20.68529342 26.31357916 20.68529342 26.31357916 24 27 C25.11375 27.350625 26.2275 27.70125 27.375 28.0625 C32.92718842 27.96677261 35.26804997 24.83777092 39 21 C39.75410156 20.2575 40.50820313 19.515 41.28515625 18.75 C43.20849234 16.8504088 45.11128682 14.93392174 47 13 C48.06816445 13.86807601 49.12918085 14.74494783 50.1875 15.625 C50.77917969 16.11226562 51.37085938 16.59953125 51.98046875 17.1015625 C54.58543045 19.55032727 56.74813905 22.22309375 59 25 C58.58113525 25.38744385 58.16227051 25.7748877 57.73071289 26.17407227 C55.82537593 27.95399197 53.94419047 29.75761322 52.0625 31.5625 C51.40314453 32.17158203 50.74378906 32.78066406 50.06445312 33.40820312 C46.84844396 36.52525816 45.17798714 38.35142565 43.96875 42.7578125 C44.00570508 46.59190196 45.09197307 48.71819368 47 52 C47 52.66 47 53.32 47 54 C49.9195043 54.9731681 52.05444951 55.1929546 55.10546875 55.31640625 C56.57983398 55.37924805 56.57983398 55.37924805 58.08398438 55.44335938 C59.10814453 55.48267578 60.13230469 55.52199219 61.1875 55.5625 C62.22326172 55.60568359 63.25902344 55.64886719 64.32617188 55.69335938 C66.88395702 55.79944263 69.44196098 55.90022586 72 56 C72 61.28 72 66.56 72 72 C70.44667969 72.06058594 68.89335937 72.12117188 67.29296875 72.18359375 C65.25780305 72.26800154 63.22264729 72.35264943 61.1875 72.4375 C60.16333984 72.47681641 59.13917969 72.51613281 58.08398438 72.55664062 C57.10107422 72.59853516 56.11816406 72.64042969 55.10546875 72.68359375 C54.19949951 72.72025146 53.29353027 72.75690918 52.36010742 72.79467773 C49.84951218 72.9208205 49.84951218 72.9208205 47 74 C45.76554914 76.69835953 45.76554914 76.69835953 45 80 C44.649375 81.11375 44.29875 82.2275 43.9375 83.375 C44.02214762 88.2845618 46.08581589 90.00479967 49.43359375 93.3984375 C51 95 51 95 51 96 C38.79 96 26.58 96 14 96 C16.88328982 94.07780678 19.65991188 92.79465603 22.8125 91.375 C28.6170323 88.47623477 31.92519344 85.69144657 35 80 C35.40992188 79.24847656 35.81984375 78.49695313 36.2421875 77.72265625 C39.70685627 70.35127475 40.46085176 62.35098511 38.3046875 54.453125 C37.36416204 52.16108817 36.28112148 50.11908774 35 48 C34.61070312 47.30132812 34.22140625 46.60265625 33.8203125 45.8828125 C29.44527153 39.02254115 22.24425787 35.32113409 14.45703125 33.359375 C3.86961001 31.81081736 -3.50013647 33.76411205 -12.25 39.75 C-17.76415547 44.09981189 -21.51732141 50.12576292 -23 57 C-23.92399185 67.41140813 -21.89727478 76.39406653 -15.8046875 84.95703125 C-11.32026823 90.03354917 -5.54243363 93.32245292 1 95 C1 95.33 1 95.66 1 96 C-10.88 96 -22.76 96 -35 96 C-33.02 93.69 -31.04 91.38 -29 89 C-27.71114774 84.6785542 -27.63790304 82.83439735 -29.4375 78.6875 C-30.2109375 77.3571875 -30.2109375 77.3571875 -31 76 C-31 75.34 -31 74.68 -31 74 C-34.02769315 73.13888484 -36.84266637 72.81769107 -39.984375 72.68359375 C-40.91894531 72.64169922 -41.85351562 72.59980469 -42.81640625 72.55664062 C-43.78449219 72.51732422 -44.75257813 72.47800781 -45.75 72.4375 C-47.22533203 72.37272461 -47.22533203 72.37272461 -48.73046875 72.30664062 C-51.15348927 72.20078051 -53.57672672 72.09990688 -56 72 C-56 66.72 -56 61.44 -56 56 C-53.79570312 55.90912109 -53.79570312 55.90912109 -51.546875 55.81640625 C-49.61457395 55.73198533 -47.68228278 55.6473381 -45.75 55.5625 C-44.78191406 55.52318359 -43.81382812 55.48386719 -42.81640625 55.44335938 C-41.88183594 55.40146484 -40.94726562 55.35957031 -39.984375 55.31640625 C-39.12553711 55.27974854 -38.26669922 55.24309082 -37.38183594 55.20532227 C-35.10826816 55.00933308 -33.14487041 54.78397687 -31 54 C-29.68642084 51.31470658 -29.68642084 51.31470658 -29 48 C-28.649375 46.88625 -28.29875 45.7725 -27.9375 44.625 C-28.03322739 39.07281158 -31.16222908 36.73195003 -35 33 C-35.7425 32.24589844 -36.485 31.49179688 -37.25 30.71484375 C-39.1495912 28.79150766 -41.06607826 26.88871318 -43 25 C-42.13192399 23.93183555 -41.25505217 22.87081915 -40.375 21.8125 C-39.88773437 21.22082031 -39.40046875 20.62914063 -38.8984375 20.01953125 C-36.44967273 17.41456955 -33.77690625 15.25186095 -31 13 C-30.61255615 13.41886475 -30.2251123 13.83772949 -29.82592773 14.26928711 C-28.04600803 16.17462407 -26.24238678 18.05580953 -24.4375 19.9375 C-23.82841797 20.59685547 -23.21933594 21.25621094 -22.59179688 21.93554688 C-19.47474184 25.15155604 -17.64857435 26.82201286 -13.2421875 28.03125 C-9.40809804 27.99429492 -7.28180632 26.90802693 -4 25 C-3.34 25 -2.68 25 -2 25 C-1.13888484 21.97230685 -0.81769107 19.15733363 -0.68359375 16.015625 C-0.62075195 14.61376953 -0.62075195 14.61376953 -0.55664062 13.18359375 C-0.51732422 12.21550781 -0.47800781 11.24742188 -0.4375 10.25 C-0.37272461 8.77466797 -0.37272461 8.77466797 -0.30664062 7.26953125 C-0.20078051 4.84651073 -0.09990688 2.42327328 0 0 Z " fill="#EA1C23" transform="translate(376,80)"/>
<path d="M0 0 C0.33 0 0.66 0 1 0 C1.30225377 7.55312824 1.53269803 15.10562548 1.67355824 22.66343689 C1.74120408 26.17412962 1.83276084 29.6806659 1.98071289 33.18896484 C2.90324546 55.66576004 2.90324546 55.66576004 -0.12155151 60.96481323 C-3.41815983 64.3682245 -7.59853245 65.58457492 -12 67 C-14.04228139 68.12923678 -16.05825246 69.30756093 -18.04296875 70.53515625 C-20.09003786 71.71286545 -22.13824952 72.88859055 -24.1875 74.0625 C-26.45706901 75.36712182 -28.72659908 76.67181137 -30.99609375 77.9765625 C-32.15998262 78.6448757 -33.3238824 79.3131699 -34.48779297 79.98144531 C-39.12744325 82.64654638 -43.76050713 85.32301931 -48.39331055 88 C-50.60822456 89.27846081 -52.82450677 90.55455454 -55.04223633 91.828125 C-59.58875817 94.43994924 -64.12562911 97.05767791 -68.6015625 99.7890625 C-69.25543945 100.18230713 -69.90931641 100.57555176 -70.58300781 100.98071289 C-72.21599245 101.96651057 -73.8390398 102.96872211 -75.4609375 103.97265625 C-78 105 -78 105 -80.140625 104.390625 C-82.06955358 102.94798094 -83.68954665 101.40727254 -85.375 99.6875 C-92.8246312 93.00371874 -103.37735296 90.82498478 -113 89 C-113 88.67 -113 88.34 -113 88 C-112.01902344 87.82984375 -111.03804688 87.6596875 -110.02734375 87.484375 C-73.87432023 81.06721333 -39.80920364 64.64554636 -18 34 C-10.84095504 23.39632036 -4.06413678 12.19241035 0 0 Z " fill="#744B29" transform="translate(447,287)"/>
<path d="M0 0 C5.33481255 0.88780172 10.52368986 2.27011192 15.7421875 3.67504883 C17.51734741 4.14370361 17.51734741 4.14370361 19.32836914 4.62182617 C27.38321158 6.76262285 35.40089921 9.02097789 43.40283203 11.35083008 C50.28363089 13.34161925 57.20871669 15.10708244 64.16992188 16.79345703 C68.30924804 17.80210609 72.33622172 18.90871548 76.3671875 20.30004883 C86.00993796 23.25919976 95.05300941 21.97598199 103.9296875 17.48754883 C102.49756603 23.08584185 100.0838978 26.61473646 95.0546875 29.60083008 C85.99122163 33.38282778 75.36557053 28.87524994 66.53369141 26.24047852 C61.8396161 24.88321916 57.10084938 23.69782237 52.3671875 22.48754883 C45.70358917 20.76991832 39.0779106 18.98307608 32.4921875 16.98754883 C24.55723739 14.5846156 16.53225247 12.58675698 8.47680664 10.63012695 C3.72093997 9.46831563 -1.01954102 8.26641111 -5.73046875 6.93286133 C-6.54265869 6.70356934 -7.35484863 6.47427734 -8.19165039 6.23803711 C-10.0703125 5.48754883 -10.0703125 5.48754883 -11.0703125 3.48754883 C-7.88367626 -1.29240553 -5.13556116 -0.63129238 0 0 Z " fill="#FA9276" transform="translate(253.0703125,395.512451171875)"/>
<path d="M0 0 C4.98669007 2.49334503 8.49675474 5.99350949 11 11 C11.54360446 15.95482094 11.56437074 19.87125852 9.3125 24.375 C5.72054254 28.45235712 2.52833982 31.59004052 -3.05078125 32.23828125 C-8.58896758 32.42001793 -11.64755155 31.74513006 -16 28 C-20.39893104 23.00661882 -21.35676337 20.08984773 -21.28125 13.5390625 C-20.73016315 8.56397287 -17.99302299 5.87480597 -14.375 2.6875 C-9.71860985 -0.62098774 -5.60468123 -0.62082623 0 0 Z " fill="#E1E1E2" transform="translate(389,128)"/>
<path d="M0 0 C2.64 0 5.28 0 8 0 C8 31.68 8 63.36 8 96 C5.36 96 2.72 96 0 96 C0 64.32 0 32.64 0 0 Z " fill="#004FAC" transform="translate(72,368)"/>
</svg>
