<svg version="1.1" id="Layer_1" xmlns="http://www.w3.org/2000/svg" xmlns:xlink="http://www.w3.org/1999/xlink" x="0px" y="0px"
	 width="100%" viewBox="0 0 1024 1024" enable-background="new 0 0 1024 1024" xml:space="preserve">
<path fill="#000000" opacity="1.000000" stroke="none" 
	d="
M272.864441,514.004150 
	C262.106476,487.893127 255.918777,461.118256 253.787048,433.336304 
	C249.993622,383.897888 259.603180,337.071289 282.457733,293.299164 
	C308.584808,243.259369 347.030823,205.224655 397.684509,179.839401 
	C424.269623,166.516220 452.377289,157.999115 481.795502,154.120056 
	C505.840912,150.949463 529.964722,151.165253 553.940491,155.182266 
	C637.508423,169.183655 700.650146,213.008499 743.233032,286.082672 
	C760.182739,315.169006 770.232178,346.847351 774.313416,380.318909 
	C782.429932,446.883667 767.875305,508.044525 729.851074,563.328857 
	C708.603333,594.221436 681.694824,619.352295 649.325195,638.352173 
	C638.842712,644.504944 637.124207,654.307434 636.193359,664.756714 
	C632.045288,711.322510 635.142395,757.995300 634.226746,804.610046 
	C634.197327,806.109253 634.293823,807.615845 634.181580,809.107727 
	C633.694275,815.582458 629.722351,819.305115 623.034302,819.355896 
	C613.036377,819.431885 603.034668,819.503845 593.040344,819.297424 
	C589.091003,819.215942 587.233704,820.540710 585.916565,824.446411 
	C574.399475,858.599670 540.494263,879.761230 504.900909,874.659912 
	C474.802399,870.346130 454.753113,853.073425 444.033356,824.904663 
	C442.467316,820.789551 440.597321,819.146545 436.186157,819.286926 
	C426.696838,819.588928 417.191650,819.437256 407.693329,819.396606 
	C399.255768,819.360474 395.912720,816.022339 395.899658,807.536072 
	C395.843231,770.875427 395.995026,734.213440 395.706879,697.554810 
	C395.612854,685.587585 394.412994,673.629089 393.720306,661.666504 
	C393.041656,649.945862 385.797089,642.614197 376.740692,636.636414 
	C367.696594,630.666687 358.732544,624.603210 350.317871,617.758545 
	C315.895660,589.758972 290.153778,555.269714 272.864441,514.004150 
M623.663940,637.317322 
	C627.215698,630.857605 632.417725,626.044373 638.702820,622.339417 
	C666.042114,606.223022 689.231750,585.409424 708.266724,560.081665 
	C738.110718,520.371765 754.577515,475.734619 756.878601,425.980469 
	C758.688232,386.850922 751.907959,349.322784 735.595764,313.694153 
	C692.527100,219.624802 595.455505,163.457382 492.348450,172.930054 
	C427.701874,178.869278 373.843658,206.874283 331.678223,255.668411 
	C285.349518,309.280304 266.276367,372.168640 274.210297,442.823761 
	C278.603333,481.945770 292.176422,517.751953 314.317963,550.297363 
	C333.420044,578.375061 357.439026,601.338135 386.073547,619.588928 
	C400.874176,629.022522 411.910889,641.310425 413.049988,659.890625 
	C413.956543,674.677795 414.644196,689.488220 414.931763,704.297974 
	C415.027008,709.204529 416.164856,710.943115 421.361694,710.893188 
	C446.352661,710.653198 471.347412,710.818604 496.340820,710.822388 
	C533.664307,710.828003 570.988281,710.731812 608.310852,710.917358 
	C613.409241,710.942688 615.125854,709.346985 614.777466,704.328857 
	C614.060303,693.998352 615.200012,683.679749 615.982788,673.403381 
	C616.902100,661.335083 617.445557,649.071167 623.663940,637.317322 
M483.500427,819.382996 
	C478.670013,819.386963 473.839508,819.409485 469.009186,819.390381 
	C462.524445,819.364746 462.108063,820.027283 465.075226,825.784668 
	C481.934570,858.497986 524.724792,866.506104 552.239319,841.993835 
	C558.857544,836.097839 563.765381,828.935791 567.223389,819.385376 
	C538.944336,819.385376 511.722321,819.385376 483.500427,819.382996 
M453.500000,742.023743 
	C505.275330,742.024719 557.050842,741.962769 608.825684,742.125610 
	C613.902710,742.141541 614.845398,740.146179 614.914612,735.648438 
	C614.985840,731.023743 613.125427,730.142090 608.981262,730.149170 
	C546.218445,730.257080 483.455231,730.274658 420.692474,730.145935 
	C416.108032,730.136536 415.061676,731.845337 415.097107,736.004089 
	C415.131073,739.990723 415.809204,742.206116 420.537903,742.090698 
	C431.186127,741.830688 441.845276,742.018066 453.500000,742.023743 
M428.515320,771.668701 
	C487.949463,771.669312 547.383606,771.670105 606.817749,771.668884 
	C608.315918,771.668823 609.814148,771.628235 611.312195,771.638062 
	C613.567017,771.652893 614.489380,770.522217 614.759521,768.302673 
	C615.492310,762.282959 614.655640,761.203064 608.663757,761.203674 
	C546.565918,761.210083 484.468109,761.222290 422.370270,761.237854 
	C420.872803,761.238220 419.373749,761.263855 417.878448,761.338135 
	C416.836426,761.389954 416.021790,761.793152 415.503387,762.830688 
	C413.300873,767.238831 415.753693,771.600525 420.530762,771.662598 
	C422.861115,771.692932 425.192200,771.668335 428.515320,771.668701 
M588.499756,800.116699 
	C595.498413,800.158081 602.508301,799.979004 609.490967,800.334473 
	C612.947327,800.510376 614.872070,800.149414 614.836914,796.060059 
	C614.805603,792.428894 614.530151,790.202148 609.818237,790.212463 
	C546.820129,790.350281 483.821564,790.341248 420.823334,790.229553 
	C416.358185,790.221619 415.136993,791.842163 415.095367,796.085144 
	C415.048187,800.891602 417.939301,800.507629 421.020508,800.385803 
	C423.017395,800.306824 425.013397,800.125366 427.009827,800.124878 
	C480.506409,800.111816 534.002991,800.116211 588.499756,800.116699 
z"/>
<path fill="#000000" opacity="1.000000" stroke="none" 
	d="
M350.107666,322.158936 
	C357.833710,310.056396 365.452972,298.313416 372.845398,286.429291 
	C375.013489,282.943817 377.015167,282.425781 380.465546,284.757355 
	C387.641174,289.606262 395.151276,293.960663 402.318542,298.821198 
	C407.186584,302.122528 408.583466,297.049011 411.412018,295.513611 
	C414.148804,294.028076 412.936432,291.937195 411.888641,289.953156 
	C407.687622,281.998627 403.590790,273.987518 399.275818,266.095551 
	C397.707581,263.227295 398.275299,261.732056 401.144897,260.217712 
	C418.528839,251.043808 435.868988,241.784683 453.131470,232.384583 
	C456.526550,230.535812 458.185913,231.500015 459.786774,234.598648 
	C464.068512,242.886490 468.541199,251.075546 472.911438,259.317932 
	C473.868591,261.123169 474.574463,262.866516 477.351654,262.140808 
	C479.978729,261.454346 480.786499,259.984406 480.774811,257.480591 
	C480.731995,248.315048 480.904266,239.146988 480.745239,229.984222 
	C480.678436,226.135773 482.023499,224.659515 485.963379,224.684921 
	C505.294189,224.809692 524.626831,224.800629 543.957581,224.666534 
	C547.917358,224.639053 549.242981,226.202881 549.179810,230.007980 
	C549.030457,239.004654 549.249573,248.007645 549.084045,257.003754 
	C549.024170,260.258575 550.179749,261.840729 553.373413,262.515289 
	C562.719910,264.489532 560.589661,266.352997 565.749695,257.723846 
	C569.853638,250.860657 573.974731,244.005615 577.936523,237.060455 
	C579.598633,234.146774 581.255249,233.510956 584.320129,235.353134 
	C601.170288,245.481308 618.087036,255.500641 635.072998,265.399292 
	C638.045471,267.131531 638.680603,268.655396 636.820984,271.678070 
	C632.195251,279.196625 627.950745,286.950348 623.296753,294.450531 
	C621.573059,297.228394 621.682373,298.958771 624.194824,301.191559 
	C631.622314,307.792145 631.529419,307.887482 640.441223,302.992554 
	C646.135681,299.864838 651.891663,296.845001 657.521240,293.605072 
	C660.602539,291.831696 662.560547,292.176392 664.344299,295.482422 
	C673.758301,312.930206 683.292419,330.313568 692.865601,347.674744 
	C694.376892,350.415527 693.548889,351.853333 691.002258,353.198944 
	C684.227844,356.778442 677.588806,360.615295 670.799255,364.164886 
	C667.818115,365.723358 666.858032,367.473419 667.830200,370.947083 
	C670.847168,381.727539 670.697021,381.738464 681.666260,382.078522 
	C686.824280,382.238434 691.979004,382.752686 697.132751,382.719269 
	C701.142761,382.693268 702.331116,384.428375 702.184753,388.201080 
	C701.429138,407.666443 700.777100,427.136169 700.187805,446.607361 
	C700.079712,450.179626 698.317078,451.171997 695.078491,451.002136 
	C688.595154,450.662048 682.099182,450.559875 675.617004,450.203674 
	C672.792114,450.048401 671.186584,451.081573 670.726013,453.893982 
	C670.564941,454.877258 670.277527,455.840759 670.029724,456.808685 
	C667.274231,467.572693 667.273865,467.571472 676.835022,473.623932 
	C680.213562,475.762604 683.555115,477.962189 686.976013,480.030731 
	C689.467529,481.537384 689.928101,483.068604 688.224426,485.704071 
	C677.552246,502.213501 666.961243,518.776672 656.512085,535.427917 
	C654.430542,538.745056 652.531677,539.282654 649.314331,537.037292 
	C644.946289,533.988770 640.273804,531.378845 635.870850,528.376953 
	C633.408630,526.698181 631.730774,526.660400 629.446228,528.947510 
	C620.759827,537.643250 620.669250,537.552795 626.441101,548.401245 
	C632.162415,559.154724 632.233643,559.286499 621.636780,565.015137 
	C606.688660,573.096008 591.584290,580.887573 576.634705,588.965576 
	C573.065796,590.894104 571.250732,589.911865 569.625427,586.528564 
	C567.536194,582.179443 564.972839,578.059875 562.822571,573.737488 
	C561.663391,571.407471 560.262085,570.730530 557.673035,571.294800 
	C549.141418,573.154358 549.121643,573.063782 549.057983,582.036804 
	C548.950562,597.183838 548.950623,597.183838 534.021912,597.185608 
	C518.189941,597.187439 502.356720,597.081665 486.526764,597.261597 
	C482.188995,597.310913 480.265137,595.821777 480.795837,591.461548 
	C480.855804,590.968750 480.807495,590.462585 480.807281,589.962646 
	C480.800537,573.109436 480.785736,573.169067 464.453705,569.120117 
	C462.088593,568.533752 460.720581,568.899292 459.521393,570.979858 
	C456.942993,575.453247 454.125244,579.790405 451.602905,584.293884 
	C449.954285,587.237366 448.087463,587.855408 445.121216,586.099976 
	C428.058350,576.002014 410.961121,565.961792 393.836029,555.969666 
	C391.168152,554.413086 391.036102,552.757080 392.592163,550.273010 
	C395.421295,545.756653 398.023254,541.098022 400.719452,536.498352 
	C400.972260,536.067139 401.345306,535.662415 401.453308,535.196838 
	C403.295319,527.254150 395.015198,525.451416 392.267700,520.249146 
	C390.704926,517.290222 388.298035,519.156189 386.258789,520.278564 
	C381.442383,522.929443 376.539459,525.430725 371.802032,528.214600 
	C368.795105,529.981567 367.068756,529.329163 365.433533,526.321289 
	C356.044434,509.050507 346.600769,491.808167 336.992249,474.658936 
	C335.087128,471.258698 335.965088,469.715485 339.162476,468.120636 
	C344.674469,465.371216 349.914948,462.074371 355.444000,459.363434 
	C358.502594,457.863739 359.654968,456.086639 358.759491,452.720642 
	C357.864014,449.354614 357.221283,445.901245 356.753754,442.447449 
	C356.334320,439.348785 354.209900,439.428986 351.988892,439.372253 
	C345.493652,439.206329 338.999420,438.997620 332.503723,438.853363 
	C328.687714,438.768585 327.146942,437.581696 327.366150,433.106537 
	C328.245941,415.143066 328.564026,397.151703 329.055145,379.169708 
	C329.287354,370.667847 329.253540,370.607208 337.754791,370.827576 
	C344.243408,370.995789 350.732117,371.261017 357.211517,371.641022 
	C360.177765,371.815002 361.692871,370.644012 362.749054,367.856232 
	C366.787872,357.195709 366.879791,357.218018 357.266144,351.011444 
	C352.367004,347.848572 347.483887,344.656921 342.506805,341.620422 
	C339.944305,340.056976 339.573486,338.383240 341.242859,335.901031 
	C344.217102,331.478577 347.032501,326.949280 350.107666,322.158936 
M681.565491,421.029846 
	C681.702026,416.033752 681.729370,411.031433 682.012695,406.043671 
	C682.208740,402.591400 680.825012,401.264679 677.386292,401.277344 
	C671.223633,401.300018 665.060364,400.984528 658.896179,400.889679 
	C655.762268,400.841431 654.164734,399.623199 653.624084,396.276978 
	C651.705750,384.404724 648.587952,372.832031 643.677368,361.817230 
	C642.301697,358.731598 643.010864,356.917328 645.974121,355.381958 
	C652.037537,352.240295 657.933655,348.776215 663.986938,345.613983 
	C666.980591,344.050110 667.663147,342.267090 665.915405,339.244843 
	C662.497192,333.333527 659.209229,327.341034 656.065979,321.279144 
	C654.494690,318.248871 652.841736,318.311951 650.130188,319.895203 
	C644.090698,323.421600 637.753967,326.442352 631.746094,330.018158 
	C628.268677,332.087830 626.057434,331.972351 623.354370,328.600616 
	C616.459229,320.000122 608.608643,312.267090 599.686401,305.749329 
	C596.620789,303.509857 596.142578,301.594788 598.254028,298.341675 
	C602.242188,292.197083 605.681702,285.697357 609.642578,279.533783 
	C611.911133,276.003693 611.896973,273.794922 607.811584,271.685577 
	C602.194153,268.785187 596.749146,265.509216 591.437439,262.073822 
	C588.265625,260.022400 586.521912,260.578125 584.728760,263.785583 
	C580.827271,270.764221 576.575623,277.546265 572.611084,284.490875 
	C571.115662,287.110321 569.358093,287.957581 566.470703,286.832336 
	C555.734741,282.648499 544.700806,279.570404 533.237610,278.127289 
	C530.548523,277.788757 529.346313,276.460205 529.452271,273.417633 
	C529.736511,265.260956 529.532532,257.088440 529.700378,248.925873 
	C529.770142,245.532516 528.504456,244.076324 525.039978,244.143478 
	C518.543152,244.269409 512.033630,244.353409 505.545105,244.080475 
	C501.293243,243.901611 500.067322,245.649490 500.181000,249.656494 
	C500.403046,257.483063 500.149902,265.322235 500.302490,273.152130 
	C500.363831,276.299835 498.968292,277.783752 496.059387,278.155243 
	C486.947845,279.318756 478.063568,281.492157 469.401947,284.483795 
	C466.022705,285.650940 464.194550,284.759796 462.631958,281.648895 
	C459.043610,274.504700 455.096436,267.541199 451.477386,260.411713 
	C450.055023,257.609680 448.495697,256.797272 445.602631,258.402222 
	C439.485352,261.795807 433.293213,265.058319 427.073853,268.262146 
	C424.370483,269.654724 424.084839,271.334656 425.491241,273.917084 
	C429.155457,280.645264 432.446747,287.583618 436.287170,294.205963 
	C438.390961,297.833740 438.078644,300.020172 434.508667,302.402374 
	C426.166718,307.968872 418.562988,314.489960 411.937927,322.035400 
	C409.276825,325.066193 407.041107,325.050018 403.848724,322.857971 
	C397.808838,318.710846 391.527496,314.913483 385.312927,311.024292 
	C383.972778,310.185516 382.303589,308.636078 380.965454,310.652252 
	C376.042114,318.070282 371.302399,325.610138 366.298218,333.408600 
	C374.008850,338.329865 380.994019,342.833954 388.031616,347.254578 
	C390.448547,348.772766 391.662323,350.319916 390.096741,353.337219 
	C384.471100,364.178986 380.335022,375.590942 377.766083,387.541260 
	C377.126617,390.515900 375.618774,391.583160 372.520111,391.438354 
	C366.032013,391.135040 359.520264,391.353760 353.029205,391.089233 
	C349.588135,390.948975 348.206818,392.168610 348.231415,395.642334 
	C348.280884,402.639343 348.263672,409.648590 347.884918,416.631683 
	C347.709473,419.866669 348.850067,420.704559 351.807373,420.668213 
	C357.970795,420.592407 364.136993,420.769196 370.302246,420.810059 
	C373.315918,420.830017 374.956726,422.164398 375.038147,425.303680 
	C375.368835,438.056549 377.802643,450.439850 381.866089,462.499847 
	C382.865417,465.465851 382.023163,467.178741 379.340668,468.548859 
	C374.594360,470.973083 369.973572,473.641937 365.249725,476.111694 
	C362.699188,477.445221 361.952942,479.066864 363.455383,481.739075 
	C366.965576,487.982300 370.416504,494.262390 373.718781,500.617249 
	C375.053894,503.186493 376.491425,503.405304 378.873657,502.019012 
	C383.335114,499.422760 387.962372,497.112854 392.452087,494.563080 
	C394.938049,493.151337 396.694702,493.476349 398.355194,495.908936 
	C405.911774,506.978973 414.713287,516.955750 425.130798,525.423645 
	C427.816559,527.606750 427.684021,529.637756 425.971558,532.292236 
	C423.534760,536.069458 421.390961,540.034546 419.021027,543.856689 
	C417.923126,545.627441 417.355011,547.160889 419.556549,548.472290 
	C426.960968,552.882996 434.363556,557.296814 441.880341,561.777100 
	C445.752350,557.278381 448.024078,552.431274 450.696381,547.870300 
	C452.370758,545.012573 454.161896,544.315308 457.213745,545.721619 
	C469.560455,551.410889 482.559082,554.918823 496.006226,556.746277 
	C499.111725,557.168457 500.315857,558.727844 500.246948,561.740173 
	C500.155487,565.737671 500.288208,569.740234 500.209808,573.738342 
	C500.158417,576.360046 501.032166,577.803955 503.922150,577.773743 
	C511.254120,577.696899 518.587891,577.705994 525.919983,577.777222 
	C528.712402,577.804321 529.793274,576.559326 529.727783,573.834473 
	C529.627747,569.670471 529.762268,565.501282 529.685242,561.336365 
	C529.632263,558.474670 530.925049,557.173523 533.751648,556.755737 
	C544.986633,555.094971 555.994019,552.456970 566.507751,548.100098 
	C569.512878,546.854797 571.075134,547.587341 572.412964,550.393799 
	C574.275085,554.299744 576.427734,558.068359 578.495239,561.874451 
	C579.290833,563.339111 580.100525,565.125366 582.258484,563.994385 
	C590.033264,559.919678 597.765137,555.763367 605.607666,551.587524 
	C603.773010,545.886475 600.856140,541.404053 598.268616,536.798401 
	C596.589844,533.810242 596.652954,531.753052 599.511108,529.563049 
	C609.209900,522.131714 617.772583,513.500427 625.411072,503.981842 
	C627.710754,501.116150 629.707703,501.167542 632.581970,503.163361 
	C637.323975,506.456116 642.327515,509.372040 647.679321,512.734863 
	C652.519104,505.085052 657.050903,497.942047 661.558533,490.783844 
	C662.812866,488.791901 662.054565,487.417572 660.201172,486.246582 
	C655.694214,483.399109 651.322021,480.331177 646.744812,477.605133 
	C643.983887,475.960876 643.086914,474.242859 644.441406,471.094360 
	C649.337585,459.712616 652.495361,447.827606 654.034119,435.530182 
	C654.530334,431.564789 656.071838,429.564392 660.582397,430.379761 
	C663.984131,430.994690 667.556702,430.724426 671.053772,430.740875 
	C680.307983,430.784454 680.308105,430.761292 681.565491,421.029846 
z"/>
<path fill="#000000" opacity="1.000000" stroke="none" 
	d="
M713.859619,452.987610 
	C716.295593,441.807251 717.098450,430.857513 717.683472,419.899353 
	C718.031921,413.371887 718.189819,413.035126 724.521973,413.357880 
	C725.682556,413.417084 726.851929,413.457764 728.010010,413.387482 
	C737.366699,412.819824 737.614380,412.956879 737.081421,422.456360 
	C733.814514,480.688232 712.016174,530.687256 669.566833,570.934814 
	C635.038879,603.671875 593.856262,622.948059 546.427551,628.400696 
	C539.659485,629.178833 532.839050,629.492126 526.057068,630.163269 
	C521.870544,630.577515 519.898682,629.186951 519.981018,624.669434 
	C520.273438,608.617859 518.336914,611.435425 532.875671,610.656982 
	C617.280090,606.138306 691.000000,545.088684 711.656799,462.645905 
	C712.424866,459.580322 713.088074,456.488434 713.859619,452.987610 
z"/>
<path fill="#000000" opacity="1.000000" stroke="none" 
	d="
M413.505493,353.596252 
	C433.933929,319.812775 463.042358,300.063629 502.230804,295.479736 
	C562.451233,288.435760 618.263367,329.807983 629.289917,389.912170 
	C641.099365,454.283936 597.028198,516.030762 532.247681,525.875183 
	C473.659790,534.778564 417.598083,498.013977 402.546143,440.856720 
	C394.532471,410.426117 398.422241,381.495361 413.505493,353.596252 
M549.498413,358.004852 
	C536.714172,349.806213 522.873108,346.278229 507.665497,348.087646 
	C475.536011,351.910431 451.413239,378.844879 451.540436,411.118225 
	C451.688446,448.674530 483.556885,474.031097 514.127991,474.060303 
	C541.249268,474.086243 567.090637,456.098236 575.445129,429.143250 
	C583.584045,402.883698 574.002869,375.991180 549.498413,358.004852 
M556.797119,323.686096 
	C531.923767,311.600403 506.257812,310.346313 480.726318,320.327393 
	C431.478241,339.580048 407.567505,389.145172 422.409668,439.831909 
	C425.811523,451.449463 431.413757,462.024323 439.732056,470.998352 
	C442.899933,474.415955 443.964081,474.216705 446.218933,470.131134 
	C448.559601,465.890106 448.867767,462.216644 446.065887,457.634064 
	C435.833801,440.898987 430.847748,422.888092 432.494995,402.911407 
	C436.393646,355.630798 482.261902,320.357239 528.876282,329.252960 
	C539.778137,331.333466 550.058350,334.988037 559.698486,340.448669 
	C562.015503,341.761139 564.264587,342.673645 566.571533,340.621674 
	C568.772034,338.664398 568.451843,336.508789 567.565918,333.840820 
	C565.848816,328.670135 561.470459,326.620972 556.797119,323.686096 
M589.585327,373.129425 
	C594.346619,384.930756 598.260254,397.117523 597.974365,409.865326 
	C597.329285,438.624847 585.273560,461.741730 561.968567,478.957214 
	C551.997925,486.322601 540.543579,490.963440 529.000793,493.847809 
	C520.556763,495.957855 510.717712,495.311127 501.830872,493.057495 
	C493.395844,490.918396 484.814209,489.968018 476.319885,488.378021 
	C473.886597,487.922577 471.287292,487.588348 469.588623,490.864105 
	C473.319061,492.002655 471.629578,496.884979 475.018036,498.389832 
	C478.363556,499.875549 481.668518,501.521484 485.136292,502.652283 
	C524.749451,515.569275 569.313599,499.985687 592.337280,468.607056 
	C611.220520,442.871307 617.078247,414.214905 607.102661,384.011078 
	C602.427002,369.854218 600.103699,365.499939 587.638306,367.479736 
	C587.383850,369.375824 588.247864,370.958313 589.585327,373.129425 
z"/>
</svg>