<svg version="1.1" id="Layer_1" xmlns="http://www.w3.org/2000/svg" xmlns:xlink="http://www.w3.org/1999/xlink" x="0px" y="0px"
	 width="100%" viewBox="0 0 558 817" enable-background="new 0 0 558 817" xml:space="preserve">
<path fill="#FEFEFF" opacity="1.000000" stroke="none" 
	d="
M559.000000,292.000000 
	C559.000000,467.666656 559.000000,642.833313 559.000000,818.000000 
	C373.000031,818.000000 187.000046,818.000000 1.000049,818.000000 
	C1.000032,545.666687 1.000032,273.333405 1.000016,1.000085 
	C186.999954,1.000057 372.999908,1.000057 558.999939,1.000028 
	C559.000000,97.833336 559.000000,194.666672 559.000000,292.000000 
M155.629257,635.057617 
	C155.745377,636.066162 155.861496,637.074707 155.778656,638.992126 
	C155.758530,668.549683 155.722549,698.107178 155.730316,727.664734 
	C155.732086,734.381836 157.442719,736.396912 164.924927,738.020691 
	C177.602264,737.986206 190.279617,737.951660 203.599365,738.303711 
	C204.031860,739.369995 204.540131,740.412292 204.885803,741.505981 
	C215.206451,774.160156 244.725052,796.484009 277.878296,796.689209 
	C313.325317,796.908569 342.975952,775.606018 353.877228,742.147278 
	C354.365082,740.649902 355.323608,739.305847 356.979523,738.032288 
	C368.634460,738.038513 380.289642,738.079285 391.944122,738.009827 
	C393.507446,738.000549 395.067474,737.434814 396.741302,737.308350 
	C396.741302,737.308350 396.947449,737.252686 397.504913,737.203125 
	C397.656738,737.094727 397.808594,736.986328 398.650299,736.839050 
	C402.848846,734.447510 403.603882,730.514893 403.603516,726.132935 
	C403.601807,706.638672 403.714081,687.144287 403.682312,667.650146 
	C403.662781,655.659363 402.979736,643.650513 403.440704,631.682373 
	C404.266266,610.247192 405.438080,588.814148 407.079803,567.427429 
	C407.686554,559.523560 411.860992,553.081238 419.122650,548.882385 
	C441.198578,536.117554 460.982361,520.358765 478.250732,501.640503 
	C534.754395,440.392578 559.628357,367.969147 551.328247,285.187103 
	C544.096130,213.056686 512.153320,152.691330 456.823547,105.856361 
	C391.619568,50.663170 315.869659,30.474609 231.765900,44.498299 
	C172.257874,54.420830 121.864174,82.552765 80.212135,126.288864 
	C0.027690,210.485321 -17.315788,340.059692 37.964333,442.615570 
	C60.900928,485.167633 92.729927,519.475403 133.605133,545.303772 
	C146.467072,553.431030 154.107758,564.132080 154.070404,580.061584 
	C154.036087,594.691040 155.166260,609.323181 155.540359,624.830139 
	C155.666473,628.048950 155.792587,631.267822 155.629257,635.057617 
z"/>
<path fill="#2C388C" opacity="1.000000" stroke="none" 
	d="
M396.947449,737.252686 
	C396.947449,737.252686 396.741302,737.308350 396.172363,737.180054 
	C383.827301,737.031494 372.051025,736.980957 360.275177,737.030945 
	C358.869904,737.036926 357.466949,737.590576 356.062897,737.890381 
	C355.323608,739.305847 354.365082,740.649902 353.877228,742.147278 
	C342.975952,775.606018 313.325317,796.908569 277.878296,796.689209 
	C244.725052,796.484009 215.206451,774.160156 204.885803,741.505981 
	C204.540131,740.412292 204.031860,739.369995 202.980743,737.824585 
	C189.575546,737.226196 176.789001,737.106995 163.785812,736.722656 
	C158.700241,734.651611 156.960846,731.003113 156.970322,725.993835 
	C157.031219,693.834290 157.020660,661.674561 156.947937,629.515076 
	C156.943756,627.660583 156.188904,625.807739 155.783401,623.954163 
	C155.166260,609.323181 154.036087,594.691040 154.070404,580.061584 
	C154.107758,564.132080 146.467072,553.431030 133.605133,545.303772 
	C92.729927,519.475403 60.900928,485.167633 37.964333,442.615570 
	C-17.315788,340.059692 0.027690,210.485321 80.212135,126.288864 
	C121.864174,82.552765 172.257874,54.420830 231.765900,44.498299 
	C315.869659,30.474609 391.619568,50.663170 456.823547,105.856361 
	C512.153320,152.691330 544.096130,213.056686 551.328247,285.187103 
	C559.628357,367.969147 534.754395,440.392578 478.250732,501.640503 
	C460.982361,520.358765 441.198578,536.117554 419.122650,548.882385 
	C411.860992,553.081238 407.686554,559.523560 407.079803,567.427429 
	C405.438080,588.814148 404.266266,610.247192 403.440704,631.682373 
	C402.979736,643.650513 403.662781,655.659363 403.682312,667.650146 
	C403.714081,687.144287 403.601807,706.638672 403.603516,726.132935 
	C403.603882,730.514893 402.848846,734.447510 398.175049,736.709229 
	C397.449005,736.803833 397.198212,737.028259 396.947449,737.252686 
M383.660797,706.743835 
	C382.237732,706.495117 380.814819,706.029480 379.391602,706.028687 
	C313.080505,705.993713 246.769379,705.990906 180.458328,706.053772 
	C178.977951,706.055176 177.498337,706.857544 175.288437,707.752563 
	C174.807739,711.495789 174.327042,715.239075 173.830673,719.104370 
	C244.820847,719.104370 314.723480,719.104370 385.293304,719.104370 
	C384.816559,714.862183 384.398224,711.139771 383.660797,706.743835 
M174.434616,677.584045 
	C174.434616,681.327332 174.434616,685.070618 174.434616,688.637512 
	C244.868774,688.637512 314.760406,688.637512 384.901917,688.637512 
	C384.901917,684.586365 384.901917,680.932556 384.462494,676.561462 
	C383.003571,676.373474 381.544708,676.021667 380.085724,676.021118 
	C313.290985,675.994812 246.496262,675.992615 179.701553,676.039673 
	C178.132965,676.040771 176.564804,676.633911 174.434616,677.584045 
M223.855774,738.742981 
	C236.449570,779.094177 291.265411,791.504639 321.281891,760.737610 
	C327.579163,754.282776 333.016327,747.186523 334.382935,737.412354 
	C333.575165,737.273926 332.767487,737.014893 331.959656,737.014404 
	C297.204407,736.993835 262.449158,736.985901 227.694016,737.037964 
	C226.471420,737.039795 225.249771,737.664978 223.855774,738.742981 
M208.499741,625.581482 
	C267.088837,625.581482 325.677917,625.581482 384.715820,625.581482 
	C384.715820,623.129089 384.622101,621.325989 384.730408,619.535095 
	C385.755249,602.589966 386.439453,585.612854 387.974518,568.713318 
	C389.370941,553.340210 396.245972,541.212708 409.831055,532.577820 
	C497.389984,476.924164 539.466003,396.948608 533.264221,293.475800 
	C529.413147,229.222534 502.406311,174.146164 455.548553,129.914215 
	C394.048859,71.860855 320.570465,49.517555 237.186539,62.494255 
	C180.936859,71.248154 133.416443,97.748497 94.004852,138.940079 
	C22.767475,213.394852 4.068166,327.986847 48.194035,421.332001 
	C69.684364,466.793304 101.665695,503.014832 144.155731,529.910156 
	C162.013397,541.213684 172.392471,556.710022 172.622818,578.417053 
	C172.774734,592.731323 173.469116,607.039856 173.939468,621.350403 
	C173.981293,622.623047 174.162552,623.891174 174.317627,625.582031 
	C185.580902,625.582031 196.540314,625.582031 208.499741,625.581482 
M215.499878,658.576172 
	C271.868408,658.576172 328.236938,658.576172 384.547668,658.576172 
	C384.547668,653.438721 384.547668,649.196350 384.547668,644.818481 
	C314.345581,644.818481 244.487427,644.818481 174.419037,644.818481 
	C174.419037,649.425171 174.419037,653.673462 174.419037,658.575806 
	C187.951599,658.575806 201.225739,658.575806 215.499878,658.576172 
z"/>
<path fill="#31367E" opacity="1.000000" stroke="none" 
	d="
M155.661880,624.392151 
	C156.188904,625.807739 156.943756,627.660583 156.947937,629.515076 
	C157.020660,661.674561 157.031219,693.834290 156.970322,725.993835 
	C156.960846,731.003113 158.700241,734.651611 163.785751,736.935608 
	C164.002319,737.413635 164.003326,737.839172 164.003326,737.839172 
	C157.442719,736.396912 155.732086,734.381836 155.730316,727.664734 
	C155.722549,698.107178 155.758530,668.549683 155.890350,638.091064 
	C155.974258,636.288879 155.946472,635.387756 155.918701,634.486633 
	C155.792587,631.267822 155.666473,628.048950 155.661880,624.392151 
z"/>
<path fill="#313770" opacity="1.000000" stroke="none" 
	d="
M356.521240,737.961304 
	C357.466949,737.590576 358.869904,737.036926 360.275177,737.030945 
	C372.051025,736.980957 383.827301,737.031494 396.116241,737.089233 
	C395.067474,737.434814 393.507446,738.000549 391.944122,738.009827 
	C380.289642,738.079285 368.634460,738.038513 356.521240,737.961304 
z"/>
<path fill="#2F356F" opacity="1.000000" stroke="none" 
	d="
M164.464127,737.929932 
	C164.003326,737.839172 164.002319,737.413635 164.002380,737.200684 
	C176.789001,737.106995 189.575546,737.226196 202.659531,737.631287 
	C190.279617,737.951660 177.602264,737.986206 164.464127,737.929932 
z"/>
<path fill="#2C388C" opacity="1.000000" stroke="none" 
	d="
M155.773972,634.772095 
	C155.946472,635.387756 155.974258,636.288879 155.989838,637.636597 
	C155.861496,637.074707 155.745377,636.066162 155.773972,634.772095 
z"/>
<path fill="#313770" opacity="1.000000" stroke="none" 
	d="
M397.226166,737.227905 
	C397.198212,737.028259 397.449005,736.803833 397.830109,736.728638 
	C397.808594,736.986328 397.656738,737.094727 397.226166,737.227905 
z"/>
<path fill="#FDFDFE" opacity="1.000000" stroke="none" 
	d="
M207.999725,625.581787 
	C196.540314,625.582031 185.580902,625.582031 174.317627,625.582031 
	C174.162552,623.891174 173.981293,622.623047 173.939468,621.350403 
	C173.469116,607.039856 172.774734,592.731323 172.622818,578.417053 
	C172.392471,556.710022 162.013397,541.213684 144.155731,529.910156 
	C101.665695,503.014832 69.684364,466.793304 48.194035,421.332001 
	C4.068166,327.986847 22.767475,213.394852 94.004852,138.940079 
	C133.416443,97.748497 180.936859,71.248154 237.186539,62.494255 
	C320.570465,49.517555 394.048859,71.860855 455.548553,129.914215 
	C502.406311,174.146164 529.413147,229.222534 533.264221,293.475800 
	C539.466003,396.948608 497.389984,476.924164 409.831055,532.577820 
	C396.245972,541.212708 389.370941,553.340210 387.974518,568.713318 
	C386.439453,585.612854 385.755249,602.589966 384.730408,619.535095 
	C384.622101,621.325989 384.715820,623.129089 384.715820,625.581482 
	C325.677917,625.581482 267.088837,625.581482 207.999725,625.581787 
M115.354332,205.841949 
	C109.135475,215.600922 102.916626,225.359894 96.863449,234.858871 
	C97.442993,235.645981 97.513351,235.823120 97.643692,235.906830 
	C102.966904,239.325958 108.302681,242.725555 113.620956,246.152313 
	C117.257690,248.495575 122.825302,250.191422 123.957298,253.426666 
	C125.141914,256.812347 121.838821,261.645874 120.901939,265.934937 
	C120.153030,269.363434 118.559433,270.295410 115.041130,270.174164 
	C105.614548,269.849335 96.169403,270.063416 86.146912,270.063416 
	C85.402306,292.643341 84.644821,315.614105 83.855354,339.554565 
	C94.468590,339.554565 104.224243,339.554565 113.927025,339.554565 
	C115.310478,346.637238 116.514832,352.802948 117.767677,359.216919 
	C109.276550,363.912567 100.872467,368.560059 92.071808,373.426849 
	C103.295250,393.886780 114.315231,413.975800 125.554436,434.464478 
	C133.594498,430.114807 141.286758,425.953278 149.053101,421.751709 
	C153.973877,427.173767 158.649475,432.325653 163.463501,437.630096 
	C159.093781,445.124298 154.781784,452.519501 150.351974,460.116791 
	C170.622223,472.099976 190.327286,483.749023 210.311508,495.563110 
	C214.115631,489.126831 217.465118,483.194824 221.135529,477.468567 
	C221.887802,476.294952 224.057999,475.001617 225.205765,475.280670 
	C231.623093,476.840668 237.927155,478.866547 244.789703,480.886230 
	C244.789703,488.684204 244.789703,496.596680 244.789703,504.666138 
	C268.065552,504.666138 290.806091,504.666138 314.137207,504.666138 
	C314.137207,496.501526 314.137207,488.590515 314.137207,480.647003 
	C319.134094,479.341553 323.587952,478.177979 328.285980,476.950623 
	C332.204407,484.181976 336.042816,491.265686 339.980713,498.532928 
	C360.835358,487.425110 381.042450,476.662201 401.444977,465.795197 
	C397.770752,458.895874 394.304535,452.633911 391.131500,446.226715 
	C390.473938,444.899017 390.184906,442.379822 390.958435,441.525299 
	C394.503967,437.608551 398.487305,434.088135 402.455078,430.289856 
	C409.928253,434.989227 417.202515,439.563538 424.775543,444.325684 
	C437.361206,424.557861 449.678070,405.212250 462.194305,385.553467 
	C454.862000,380.873474 447.821838,376.466370 440.901215,371.878906 
	C439.727631,371.100983 438.111176,369.328918 438.326477,368.388855 
	C439.684296,362.461151 441.501343,356.638672 443.046692,351.203613 
	C453.211060,351.203613 462.772156,351.203613 472.667664,351.203613 
	C473.427887,328.081207 474.179688,305.214081 474.960663,281.460754 
	C463.693359,281.460754 453.089142,281.460754 442.423920,281.460754 
	C440.633179,274.988922 439.061066,269.307312 437.465729,263.541718 
	C447.337646,258.098511 456.788361,252.887543 466.709534,247.417160 
	C455.488983,226.959656 444.418549,206.775818 433.223694,186.365158 
	C431.130554,187.449142 429.659180,188.175278 428.220886,188.961945 
	C420.334198,193.275604 412.501068,197.691513 404.528015,201.838654 
	C403.246704,202.505112 400.741425,202.688873 399.851593,201.904724 
	C396.499298,198.950531 393.580627,195.504227 390.176849,191.900528 
	C396.038879,181.930466 402.165375,171.510559 408.483032,160.765533 
	C388.409424,148.876511 368.695282,137.200409 348.526611,125.255096 
	C342.874695,134.767059 337.206696,143.756516 332.145477,153.075516 
	C329.901733,157.206863 327.764404,158.175629 323.232056,156.706177 
	C314.271973,153.801147 314.176422,154.104156 314.179810,144.683182 
	C314.183228,135.258484 314.180542,125.833786 314.180542,116.275841 
	C290.723907,116.275841 267.974731,116.275841 244.723343,116.275841 
	C244.723343,126.807579 244.723480,137.090683 244.723297,147.373779 
	C244.723160,155.016388 244.722977,155.016388 236.697952,155.642578 
	C230.828033,144.658463 224.909454,133.583252 218.847626,122.240028 
	C197.936371,133.373459 177.741989,144.125229 157.335571,154.989883 
	C163.247833,166.181473 168.836777,176.761002 174.562210,187.598907 
	C171.268906,190.475372 168.072906,193.266830 164.906677,196.032272 
	C154.438126,189.408356 144.379868,183.044067 134.047806,176.506516 
	C127.717361,186.441513 121.731522,195.835693 115.354332,205.841949 
M481.945160,380.451538 
	C447.657959,470.373749 380.993622,515.421265 286.220398,522.008484 
	C286.220398,527.509094 286.220398,533.399963 286.220398,539.278076 
	C411.824524,540.791626 514.158325,433.192505 510.989471,314.196075 
	C505.096313,314.196075 499.201996,314.196075 492.971497,314.196075 
	C492.701385,336.777649 489.404083,358.572144 481.945160,380.451538 
z"/>
<path fill="#FCFCFE" opacity="1.000000" stroke="none" 
	d="
M334.924133,738.034119 
	C333.016327,747.186523 327.579163,754.282776 321.281891,760.737610 
	C291.265411,791.504639 236.449570,779.094177 224.407028,738.389526 
	C261.613556,738.035400 298.268860,738.034729 334.924133,738.034119 
z"/>
<path fill="#F6F6F9" opacity="1.000000" stroke="none" 
	d="
M214.999878,658.575989 
	C201.225739,658.575806 187.951599,658.575806 174.419037,658.575806 
	C174.419037,653.673462 174.419037,649.425171 174.419037,644.818481 
	C244.487427,644.818481 314.345581,644.818481 384.547668,644.818481 
	C384.547668,649.196350 384.547668,653.438721 384.547668,658.576172 
	C328.236938,658.576172 271.868408,658.576172 214.999878,658.575989 
z"/>
<path fill="#FBFCFE" opacity="1.000000" stroke="none" 
	d="
M384.901917,677.278748 
	C384.901917,680.932556 384.901917,684.586365 384.901917,688.637512 
	C314.760406,688.637512 244.868774,688.637512 174.434616,688.637512 
	C174.434616,685.070618 174.434616,681.327332 175.182495,677.309448 
	C243.426193,677.037598 310.921997,677.038147 378.417816,677.052917 
	C380.579193,677.053406 382.740540,677.200195 384.901917,677.278748 
z"/>
<path fill="#FAFAFD" opacity="1.000000" stroke="none" 
	d="
M383.979889,707.417419 
	C384.398224,711.139771 384.816559,714.862183 385.293304,719.104370 
	C314.723480,719.104370 244.820847,719.104370 173.830673,719.104370 
	C174.327042,715.239075 174.807739,711.495789 176.098770,707.668213 
	C242.113190,707.604675 307.317291,707.629333 372.521362,707.636230 
	C376.340881,707.636658 380.160370,707.493652 383.979889,707.417419 
z"/>
<path fill="#2B347D" opacity="1.000000" stroke="none" 
	d="
M383.820343,707.080627 
	C380.160370,707.493652 376.340881,707.636658 372.521362,707.636230 
	C307.317291,707.629333 242.113190,707.604675 176.463745,707.435120 
	C177.498337,706.857544 178.977951,706.055176 180.458328,706.053772 
	C246.769379,705.990906 313.080505,705.993713 379.391602,706.028687 
	C380.814819,706.029480 382.237732,706.495117 383.820343,707.080627 
z"/>
<path fill="#2F3579" opacity="1.000000" stroke="none" 
	d="
M384.682190,676.920105 
	C382.740540,677.200195 380.579193,677.053406 378.417816,677.052917 
	C310.921997,677.038147 243.426193,677.037598 175.463409,676.992920 
	C176.564804,676.633911 178.132965,676.040771 179.701553,676.039673 
	C246.496262,675.992615 313.290985,675.994812 380.085724,676.021118 
	C381.544708,676.021667 383.003571,676.373474 384.682190,676.920105 
z"/>
<path fill="#2F356F" opacity="1.000000" stroke="none" 
	d="
M334.653534,737.723267 
	C298.268860,738.034729 261.613556,738.035400 224.492981,738.017822 
	C225.249771,737.664978 226.471420,737.039795 227.694016,737.037964 
	C262.449158,736.985901 297.204407,736.993835 331.959656,737.014404 
	C332.767487,737.014893 333.575165,737.273926 334.653534,737.723267 
z"/>
<path fill="#2C388C" opacity="1.000000" stroke="none" 
	d="
M115.550003,205.535919 
	C121.731522,195.835693 127.717361,186.441513 134.047806,176.506516 
	C144.379868,183.044067 154.438126,189.408356 164.906677,196.032272 
	C168.072906,193.266830 171.268906,190.475372 174.562210,187.598907 
	C168.836777,176.761002 163.247833,166.181473 157.335571,154.989883 
	C177.741989,144.125229 197.936371,133.373459 218.847626,122.240028 
	C224.909454,133.583252 230.828033,144.658463 236.697952,155.642578 
	C244.722977,155.016388 244.723160,155.016388 244.723297,147.373779 
	C244.723480,137.090683 244.723343,126.807579 244.723343,116.275841 
	C267.974731,116.275841 290.723907,116.275841 314.180542,116.275841 
	C314.180542,125.833786 314.183228,135.258484 314.179810,144.683182 
	C314.176422,154.104156 314.271973,153.801147 323.232056,156.706177 
	C327.764404,158.175629 329.901733,157.206863 332.145477,153.075516 
	C337.206696,143.756516 342.874695,134.767059 348.526611,125.255096 
	C368.695282,137.200409 388.409424,148.876511 408.483032,160.765533 
	C402.165375,171.510559 396.038879,181.930466 390.176849,191.900528 
	C393.580627,195.504227 396.499298,198.950531 399.851593,201.904724 
	C400.741425,202.688873 403.246704,202.505112 404.528015,201.838654 
	C412.501068,197.691513 420.334198,193.275604 428.220886,188.961945 
	C429.659180,188.175278 431.130554,187.449142 433.223694,186.365158 
	C444.418549,206.775818 455.488983,226.959656 466.709534,247.417160 
	C456.788361,252.887543 447.337646,258.098511 437.465729,263.541718 
	C439.061066,269.307312 440.633179,274.988922 442.423920,281.460754 
	C453.089142,281.460754 463.693359,281.460754 474.960663,281.460754 
	C474.179688,305.214081 473.427887,328.081207 472.667664,351.203613 
	C462.772156,351.203613 453.211060,351.203613 443.046692,351.203613 
	C441.501343,356.638672 439.684296,362.461151 438.326477,368.388855 
	C438.111176,369.328918 439.727631,371.100983 440.901215,371.878906 
	C447.821838,376.466370 454.862000,380.873474 462.194305,385.553467 
	C449.678070,405.212250 437.361206,424.557861 424.775543,444.325684 
	C417.202515,439.563538 409.928253,434.989227 402.455078,430.289856 
	C398.487305,434.088135 394.503967,437.608551 390.958435,441.525299 
	C390.184906,442.379822 390.473938,444.899017 391.131500,446.226715 
	C394.304535,452.633911 397.770752,458.895874 401.444977,465.795197 
	C381.042450,476.662201 360.835358,487.425110 339.980713,498.532928 
	C336.042816,491.265686 332.204407,484.181976 328.285980,476.950623 
	C323.587952,478.177979 319.134094,479.341553 314.137207,480.647003 
	C314.137207,488.590515 314.137207,496.501526 314.137207,504.666138 
	C290.806091,504.666138 268.065552,504.666138 244.789703,504.666138 
	C244.789703,496.596680 244.789703,488.684204 244.789703,480.886230 
	C237.927155,478.866547 231.623093,476.840668 225.205765,475.280670 
	C224.057999,475.001617 221.887802,476.294952 221.135529,477.468567 
	C217.465118,483.194824 214.115631,489.126831 210.311508,495.563110 
	C190.327286,483.749023 170.622223,472.099976 150.351974,460.116791 
	C154.781784,452.519501 159.093781,445.124298 163.463501,437.630096 
	C158.649475,432.325653 153.973877,427.173767 149.053101,421.751709 
	C141.286758,425.953278 133.594498,430.114807 125.554436,434.464478 
	C114.315231,413.975800 103.295250,393.886780 92.071808,373.426849 
	C100.872467,368.560059 109.276550,363.912567 117.767677,359.216919 
	C116.514832,352.802948 115.310478,346.637238 113.927025,339.554565 
	C104.224243,339.554565 94.468590,339.554565 83.855354,339.554565 
	C84.644821,315.614105 85.402306,292.643341 86.146912,270.063416 
	C96.169403,270.063416 105.614548,269.849335 115.041130,270.174164 
	C118.559433,270.295410 120.153030,269.363434 120.901939,265.934937 
	C121.838821,261.645874 125.141914,256.812347 123.957298,253.426666 
	C122.825302,250.191422 117.257690,248.495575 113.620956,246.152313 
	C108.302681,242.725555 102.966904,239.325958 97.643692,235.906830 
	C97.513351,235.823120 97.442993,235.645981 96.863449,234.858871 
	C102.916626,225.359894 109.135475,215.600922 115.550003,205.535919 
M435.683472,243.179276 
	C437.511353,242.145325 439.339203,241.111359 441.365967,239.964905 
	C436.058350,230.312576 431.030914,221.169739 425.783997,211.627823 
	C416.003479,216.956696 406.586304,222.087601 397.904175,226.818039 
	C386.966187,216.241638 376.592621,206.210999 366.044861,196.011932 
	C371.475800,186.783279 377.116699,177.197830 382.934875,167.311127 
	C373.564636,161.772003 364.464600,156.392593 355.042725,150.822952 
	C349.649689,159.922058 344.391144,168.590164 339.367432,177.392288 
	C337.823822,180.096909 336.315338,180.545807 333.353577,179.554810 
	C325.481659,176.920929 317.505707,174.563934 309.482788,172.428802 
	C305.051117,171.249390 300.441772,170.737427 295.566742,169.862534 
	C295.566742,157.995392 295.566742,146.563660 295.566742,134.929169 
	C284.688721,134.929169 274.259949,134.929169 263.322205,134.929169 
	C263.322205,146.594299 263.322205,158.020126 263.322205,169.351868 
	C253.651657,171.649506 244.435867,173.653793 235.326218,176.059891 
	C227.519852,178.121750 227.585968,178.318619 223.886383,171.365219 
	C219.695724,163.488861 215.479919,155.625854 211.133636,147.492432 
	C201.352066,152.699539 192.143570,157.601578 182.596786,162.683701 
	C187.976181,172.926529 193.206772,182.886032 198.146042,192.290802 
	C189.016891,200.414337 180.163910,207.959579 171.745529,215.961990 
	C168.765045,218.795212 166.858093,219.856384 163.068130,217.182968 
	C155.642609,211.945084 147.781052,207.325363 139.789459,202.252716 
	C133.843536,211.576889 128.224716,220.388062 122.394104,229.531403 
	C131.404709,235.328842 140.156921,240.960037 148.221420,246.148758 
	C142.970398,260.796906 137.945496,274.814301 133.050110,288.470428 
	C124.746490,288.470428 116.271980,288.371460 107.804733,288.574799 
	C106.502312,288.606079 104.136681,290.000122 104.115685,290.811798 
	C103.859116,300.731842 103.948853,310.660858 103.948853,321.535095 
	C112.746979,321.535095 121.829346,321.535095 130.882812,321.535095 
	C131.225677,323.591644 131.394775,324.732727 131.608017,325.865540 
	C134.034515,338.756531 136.262726,351.690796 139.046982,364.504181 
	C139.721268,367.607422 139.322281,368.878540 136.616364,370.274811 
	C130.188629,373.591675 123.926994,377.230377 117.408546,380.844208 
	C122.771553,390.582184 127.809395,399.729736 132.991501,409.139221 
	C140.321716,405.169647 147.280457,401.401245 153.509399,398.028046 
	C164.752960,410.423584 175.557205,422.334778 186.836914,434.770172 
	C183.596329,440.337738 179.850967,446.772522 175.917694,453.530151 
	C185.306824,459.090424 194.397354,464.473846 203.725677,469.998077 
	C207.719177,463.331757 211.358505,457.256653 214.115875,452.653778 
	C230.173904,456.694763 245.126572,460.376587 260.003540,464.342438 
	C261.311035,464.690979 262.939026,466.851532 263.021881,468.253052 
	C263.362915,474.021271 263.164612,479.821350 263.164612,485.841949 
	C274.242676,485.841949 284.780090,485.841949 295.730743,485.841949 
	C295.730743,480.051361 295.874115,474.577393 295.675995,469.115784 
	C295.560394,465.928436 296.393799,464.607788 299.875793,463.922241 
	C309.308136,462.065247 318.624451,459.598328 327.948212,457.221985 
	C331.096558,456.419525 334.129272,455.163300 337.302734,454.084564 
	C340.842072,460.659637 344.138580,466.783661 347.645996,473.299469 
	C357.291901,468.167542 366.615570,463.207062 376.186676,458.114960 
	C372.550293,451.165222 369.185516,444.734558 366.162140,438.956360 
	C377.433319,427.861420 388.294678,417.169861 399.428864,406.209747 
	C405.542786,410.055145 412.108917,414.184998 419.054504,418.553528 
	C424.957184,409.263702 430.606049,400.373291 436.371643,391.299133 
	C428.940002,386.478943 422.017120,381.988770 415.981873,378.074280 
	C420.165771,362.165070 424.123993,347.113892 428.131592,331.875061 
	C436.510468,331.875061 445.415039,331.875061 455.024658,331.875061 
	C455.024658,321.185760 455.024658,310.796997 455.024658,299.057648 
	C446.861511,299.057648 438.578125,298.996033 430.296631,299.095459 
	C427.829987,299.125061 426.574921,298.649506 425.831482,295.838348 
	C422.521332,283.321228 418.924072,270.876587 415.196808,258.476044 
	C414.436310,255.945862 414.559418,254.587326 417.044128,253.311966 
	C423.115753,250.195511 429.058197,246.827316 435.683472,243.179276 
z"/>
<path fill="#2C388B" opacity="1.000000" stroke="none" 
	d="
M482.063995,380.074036 
	C489.404083,358.572144 492.701385,336.777649 492.971497,314.196075 
	C499.201996,314.196075 505.096313,314.196075 510.989471,314.196075 
	C514.158325,433.192505 411.824524,540.791626 286.220398,539.278076 
	C286.220398,533.399963 286.220398,527.509094 286.220398,522.008484 
	C380.993622,515.421265 447.657959,470.373749 482.063995,380.074036 
z"/>
<path fill="#FBFCFD" opacity="1.000000" stroke="none" 
	d="
M435.368042,243.369873 
	C429.058197,246.827316 423.115753,250.195511 417.044128,253.311966 
	C414.559418,254.587326 414.436310,255.945862 415.196808,258.476044 
	C418.924072,270.876587 422.521332,283.321228 425.831482,295.838348 
	C426.574921,298.649506 427.829987,299.125061 430.296631,299.095459 
	C438.578125,298.996033 446.861511,299.057648 455.024658,299.057648 
	C455.024658,310.796997 455.024658,321.185760 455.024658,331.875061 
	C445.415039,331.875061 436.510468,331.875061 428.131592,331.875061 
	C424.123993,347.113892 420.165771,362.165070 415.981873,378.074280 
	C422.017120,381.988770 428.940002,386.478943 436.371643,391.299133 
	C430.606049,400.373291 424.957184,409.263702 419.054504,418.553528 
	C412.108917,414.184998 405.542786,410.055145 399.428864,406.209747 
	C388.294678,417.169861 377.433319,427.861420 366.162140,438.956360 
	C369.185516,444.734558 372.550293,451.165222 376.186676,458.114960 
	C366.615570,463.207062 357.291901,468.167542 347.645996,473.299469 
	C344.138580,466.783661 340.842072,460.659637 337.302734,454.084564 
	C334.129272,455.163300 331.096558,456.419525 327.948212,457.221985 
	C318.624451,459.598328 309.308136,462.065247 299.875793,463.922241 
	C296.393799,464.607788 295.560394,465.928436 295.675995,469.115784 
	C295.874115,474.577393 295.730743,480.051361 295.730743,485.841949 
	C284.780090,485.841949 274.242676,485.841949 263.164612,485.841949 
	C263.164612,479.821350 263.362915,474.021271 263.021881,468.253052 
	C262.939026,466.851532 261.311035,464.690979 260.003540,464.342438 
	C245.126572,460.376587 230.173904,456.694763 214.115875,452.653778 
	C211.358505,457.256653 207.719177,463.331757 203.725677,469.998077 
	C194.397354,464.473846 185.306824,459.090424 175.917694,453.530151 
	C179.850967,446.772522 183.596329,440.337738 186.836914,434.770172 
	C175.557205,422.334778 164.752960,410.423584 153.509399,398.028046 
	C147.280457,401.401245 140.321716,405.169647 132.991501,409.139221 
	C127.809395,399.729736 122.771553,390.582184 117.408546,380.844208 
	C123.926994,377.230377 130.188629,373.591675 136.616364,370.274811 
	C139.322281,368.878540 139.721268,367.607422 139.046982,364.504181 
	C136.262726,351.690796 134.034515,338.756531 131.608017,325.865540 
	C131.394775,324.732727 131.225677,323.591644 130.882812,321.535095 
	C121.829346,321.535095 112.746979,321.535095 103.948853,321.535095 
	C103.948853,310.660858 103.859116,300.731842 104.115685,290.811798 
	C104.136681,290.000122 106.502312,288.606079 107.804733,288.574799 
	C116.271980,288.371460 124.746490,288.470428 133.050110,288.470428 
	C137.945496,274.814301 142.970398,260.796906 148.221420,246.148758 
	C140.156921,240.960037 131.404709,235.328842 122.394104,229.531403 
	C128.224716,220.388062 133.843536,211.576889 139.789459,202.252716 
	C147.781052,207.325363 155.642609,211.945084 163.068130,217.182968 
	C166.858093,219.856384 168.765045,218.795212 171.745529,215.961990 
	C180.163910,207.959579 189.016891,200.414337 198.146042,192.290802 
	C193.206772,182.886032 187.976181,172.926529 182.596786,162.683701 
	C192.143570,157.601578 201.352066,152.699539 211.133636,147.492432 
	C215.479919,155.625854 219.695724,163.488861 223.886383,171.365219 
	C227.585968,178.318619 227.519852,178.121750 235.326218,176.059891 
	C244.435867,173.653793 253.651657,171.649506 263.322205,169.351868 
	C263.322205,158.020126 263.322205,146.594299 263.322205,134.929169 
	C274.259949,134.929169 284.688721,134.929169 295.566742,134.929169 
	C295.566742,146.563660 295.566742,157.995392 295.566742,169.862534 
	C300.441772,170.737427 305.051117,171.249390 309.482788,172.428802 
	C317.505707,174.563934 325.481659,176.920929 333.353577,179.554810 
	C336.315338,180.545807 337.823822,180.096909 339.367432,177.392288 
	C344.391144,168.590164 349.649689,159.922058 355.042725,150.822952 
	C364.464600,156.392593 373.564636,161.772003 382.934875,167.311127 
	C377.116699,177.197830 371.475800,186.783279 366.044861,196.011932 
	C376.592621,206.210999 386.966187,216.241638 397.904175,226.818039 
	C406.586304,222.087601 416.003479,216.956696 425.783997,211.627823 
	C431.030914,221.169739 436.058350,230.312576 441.365967,239.964905 
	C439.339203,241.111359 437.511353,242.145325 435.368042,243.369873 
M314.804504,194.679489 
	C298.196991,189.414658 281.165497,188.071747 263.995728,190.285950 
	C200.349472,198.493759 155.009857,253.807373 158.720123,318.377502 
	C162.809036,389.537323 229.505127,442.203888 299.808838,429.788208 
	C361.313629,418.926392 404.096832,364.580780 400.149994,302.329315 
	C397.001770,252.674774 362.673920,209.084961 314.804504,194.679489 
z"/>
<path fill="#29388C" opacity="1.000000" stroke="none" 
	d="
M315.186493,194.803223 
	C362.673920,209.084961 397.001770,252.674774 400.149994,302.329315 
	C404.096832,364.580780 361.313629,418.926392 299.808838,429.788208 
	C229.505127,442.203888 162.809036,389.537323 158.720123,318.377502 
	C155.009857,253.807373 200.349472,198.493759 263.995728,190.285950 
	C281.165497,188.071747 298.196991,189.414658 315.186493,194.803223 
M258.061249,410.586639 
	C273.278320,413.902588 288.452972,413.532227 303.566498,409.958282 
	C373.829224,393.343079 405.287903,308.900146 362.435486,250.788055 
	C338.793243,218.726822 306.527618,204.650269 266.698975,208.908646 
	C243.087097,211.433151 222.854019,221.606262 206.511673,238.505798 
	C183.948730,261.838043 174.399323,289.971924 177.715576,322.526794 
	C181.981277,364.402191 215.699661,401.890839 258.061249,410.586639 
z"/>
<path fill="#72C8F3" opacity="1.000000" stroke="none" 
	d="
M257.659607,410.456940 
	C215.699661,401.890839 181.981277,364.402191 177.715576,322.526794 
	C174.399323,289.971924 183.948730,261.838043 206.511673,238.505798 
	C222.854019,221.606262 243.087097,211.433151 266.698975,208.908646 
	C306.527618,204.650269 338.793243,218.726822 362.435486,250.788055 
	C405.287903,308.900146 373.829224,393.343079 303.566498,409.958282 
	C288.452972,413.532227 273.278320,413.902588 257.659607,410.456940 
M299.335114,393.937347 
	C343.446045,383.187622 371.613037,340.915771 363.968628,295.914703 
	C356.174316,250.030960 313.420563,218.405960 267.000000,225.480576 
	C218.232285,232.912872 187.242355,276.430420 194.882126,325.192383 
	C202.350479,372.860413 251.504196,405.534363 299.335114,393.937347 
z"/>
<path fill="#29388D" opacity="1.000000" stroke="none" 
	d="
M298.920776,394.005981 
	C251.504196,405.534363 202.350479,372.860413 194.882126,325.192383 
	C187.242355,276.430420 218.232285,232.912872 267.000000,225.480576 
	C313.420563,218.405960 356.174316,250.030960 363.968628,295.914703 
	C371.613037,340.915771 343.446045,383.187622 298.920776,394.005981 
M212.176834,310.464905 
	C212.616211,353.726257 251.479462,384.802582 294.113586,375.984283 
	C328.080750,368.958588 350.919495,335.302216 345.791748,299.828644 
	C340.954742,266.366333 308.650818,240.533859 275.021088,243.235474 
	C239.672684,246.075134 213.173340,274.043518 212.176834,310.464905 
z"/>
<path fill="#FDFEFE" opacity="1.000000" stroke="none" 
	d="
M212.179749,310.011169 
	C213.173340,274.043518 239.672684,246.075134 275.021088,243.235474 
	C308.650818,240.533859 340.954742,266.366333 345.791748,299.828644 
	C350.919495,335.302216 328.080750,368.958588 294.113586,375.984283 
	C251.479462,384.802582 212.616211,353.726257 212.179749,310.011169 
z"/>
</svg>